<?xml version="1.0" standalone="no"?>
<!DOCTYPE svg PUBLIC "-//W3C//DTD SVG 1.1//EN" "http://www.w3.org/Graphics/SVG/1.1/DTD/svg11.dtd" >
<svg xmlns="http://www.w3.org/2000/svg">
<metadata></metadata>
<defs>
<font id="petrobras_sansregular" horiz-adv-x="1093" >
<font-face units-per-em="2048" ascent="1634" descent="-414" />
<missing-glyph horiz-adv-x="430" />
<glyph unicode="&#x2d;&#x2d;&#x2d;" horiz-adv-x="2048" d="M0 504v151h2048v-151h-2048z" />
<glyph unicode="&#xfb01;" horiz-adv-x="1247" d="M35 874v109l182 35v137q0 168 90 260t246 92q55 0 110.5 -9t94.5 -21v-121q-29 2 -73 4t-73 2q-49 0 -88 -8t-65.5 -31t-39.5 -66t-13 -112v-125h311v-146h-311v-874h-189v874h-182zM887 1346q0 121 117 120q59 0 86.5 -30.5t27.5 -85.5q1 -121 -114 -121q-59 0 -88 30.5 t-29 86.5zM908 0v1020h188v-1020h-188z" />
<glyph unicode="&#xfb02;" horiz-adv-x="1294" d="M35 874v109l182 35v137q0 168 90 260t246 92q55 0 110.5 -9t94.5 -21v-121q-29 2 -73 4t-73 2q-49 0 -88 -8t-65.5 -31t-39.5 -66t-13 -112v-125h311v-146h-311v-874h-189v874h-182zM920 219v1276h188v-1266q0 -68 24.5 -93t86.5 -25h28v-109q-29 -6 -54.5 -8t-51.5 -2 q-102 0 -161.5 52t-59.5 175z" />
<glyph unicode="&#xfb03;" horiz-adv-x="2056" d="M35 874v109l182 35v137q0 168 90 260t246 92q55 0 110.5 -9t94.5 -21v-121q-29 2 -73 4t-73 2q-49 0 -88 -8t-65.5 -31t-39.5 -66t-13 -112v-125h311v-146h-311v-874h-189v874h-182zM844 874v109l182 35v137q0 168 90 260t246 92q55 0 110.5 -9t94.5 -21v-121 q-29 2 -73 4t-73 2q-49 0 -88 -8t-65.5 -31t-39.5 -66t-13 -112v-125h311v-146h-311v-874h-189v874h-182zM1696 1346q0 121 117 120q59 0 86.5 -30.5t27.5 -85.5q1 -121 -114 -121q-59 0 -88 30.5t-29 86.5zM1717 0v1020h188v-1020h-188z" />
<glyph unicode="&#xfb04;" horiz-adv-x="2103" d="M35 874v109l182 35v137q0 168 90 260t246 92q55 0 110.5 -9t94.5 -21v-121q-29 2 -73 4t-73 2q-49 0 -88 -8t-65.5 -31t-39.5 -66t-13 -112v-125h311v-146h-311v-874h-189v874h-182zM844 874v109l182 35v137q0 168 90 260t246 92q55 0 110.5 -9t94.5 -21v-121 q-29 2 -73 4t-73 2q-49 0 -88 -8t-65.5 -31t-39.5 -66t-13 -112v-125h311v-146h-311v-874h-189v874h-182zM1729 219v1276h188v-1266q0 -68 24.5 -93t86.5 -25h28v-109q-29 -6 -54.5 -8t-51.5 -2q-102 0 -161.5 52t-59.5 175z" />
<glyph unicode="&#xd;" horiz-adv-x="430" />
<glyph horiz-adv-x="0" />
<glyph horiz-adv-x="0" />
<glyph unicode=" "  horiz-adv-x="430" />
<glyph unicode="&#x09;" horiz-adv-x="430" />
<glyph unicode="&#xa0;" horiz-adv-x="430" />
<glyph unicode="!" horiz-adv-x="532" d="M150 111q0 57 28.5 89.5t87.5 32.5t88 -32.5t29 -89.5q0 -55 -29 -88t-88 -33t-87.5 32.5t-28.5 88.5zM164 1495h205l-15 -1102h-176z" />
<glyph unicode="&#x22;" horiz-adv-x="739" d="M121 1393q0 41 17.5 71.5t72.5 30.5t72.5 -30.5t17.5 -71.5q0 -14 -1 -28.5t-3 -35.5l-23 -297h-127l-22 297q-2 20 -3 34.5t-1 29.5zM443 1393q0 41 17.5 71.5t72.5 30.5t72.5 -30.5t17.5 -71.5q0 -14 -1 -28.5t-3 -35.5l-23 -297h-127l-22 297q-2 20 -3 34.5t-1 29.5z " />
<glyph unicode="#" d="M57 387v139h154l82 422h-135v139h164l75 388h150l-76 -388h285l75 388h152l-76 -388h129v-139h-157l-82 -422h139v-139h-168l-76 -387h-151l75 387h-284l-76 -387h-150l76 387h-125zM360 526h285l82 422h-285z" />
<glyph unicode="$" d="M113 1067q0 184 92 288.5t266 123.5v231h170v-231q74 -8 142.5 -22.5t127.5 -31.5v-125q-76 10 -159.5 19.5t-163.5 9.5q-66 0 -119 -9t-91 -36t-58.5 -74t-20.5 -123q0 -66 15.5 -106.5t48 -66t79.5 -42t113 -32.5l55 -15q84 -23 148.5 -50t108.5 -73.5t66.5 -113 t22.5 -164.5q0 -193 -84 -293t-237 -129v-238h-168v230q-94 4 -183 22.5t-155 38.5v123q84 -12 173 -20t167 -8q72 0 128 10t94 38.5t58.5 80t20.5 133.5q0 63 -13.5 105t-44 69.5t-80.5 47t-124 36.5l-53 12q-78 18 -140.5 45t-107.5 72t-69.5 109.5t-24.5 158.5z" />
<glyph unicode="%" horiz-adv-x="1529" d="M80 1114q0 184 69.5 280.5t223.5 96.5t223 -96.5t69 -280.5q0 -182 -69 -278.5t-223 -96.5t-223.5 96.5t-69.5 278.5zM225 1114q0 -141 37 -194q39 -53 111 -54q72 0 109.5 53.5t37.5 194.5q0 143 -38 196.5t-109 53.5q-72 0 -110 -53.5t-38 -196.5zM262 0l834 1475h172 l-834 -1475h-172zM865 356q0 184 69.5 280.5t223.5 96.5t223 -96.5t69 -280.5q0 -182 -69 -278.5t-223 -96.5t-223.5 96.5t-69.5 278.5zM1010 356q0 -141 37 -194q39 -53 111 -54q72 0 109.5 53.5t37.5 194.5q0 143 -38 196.5t-109 53.5q-72 0 -110 -53.5t-38 -196.5z" />
<glyph unicode="&#x26;" horiz-adv-x="1310" d="M90 444q0 193 83 300.5t228 142.5q-57 82 -87.5 157.5t-30.5 153.5q0 150 95 235t288 85q86 0 147 -14.5t125 -37.5v-129q-59 6 -115.5 12.5t-134.5 6.5q-109 0 -167 -36t-58 -128q0 -78 39 -143.5t88 -133.5l403 -559q23 53 34 112.5t11 131.5v174h162v-192 q0 -111 -27.5 -202t-78.5 -163l157 -217h-207l-67 94q-158 -117 -377 -117q-510 0 -510 467zM272 451q0 -180 87 -251t255 -71q166 0 275 86l-402 555q-98 -16 -156.5 -87t-58.5 -232z" />
<glyph unicode="'" horiz-adv-x="413" d="M117 1393q0 41 17.5 71.5t72.5 30.5t72.5 -30.5t17.5 -71.5q0 -14 -1 -28.5t-3 -35.5l-23 -297h-127l-22 297q-2 20 -3 34.5t-1 29.5z" />
<glyph unicode="(" horiz-adv-x="647" d="M145 698q0 281 71 504t198 389h198q-68 -102 -118 -200.5t-81.5 -203t-48 -224t-16.5 -265.5q0 -145 16.5 -265t48 -224.5t82 -202.5t117.5 -201h-198q-127 166 -198 389.5t-71 503.5z" />
<glyph unicode=")" horiz-adv-x="647" d="M37 -195q68 102 118 200.5t81.5 203t48 224.5t16.5 265t-16.5 265t-48 224.5t-82 203t-117.5 200.5h199q127 -166 197.5 -389t70.5 -504t-71 -504t-197 -389h-199z" />
<glyph unicode="*" horiz-adv-x="798" d="M84 1090l225 110l-225 111l63 110l201 -133l-12 113q-2 16 -4 38.5t-2 28.5q0 33 14 50.5t55 17.5t55.5 -17.5t14.5 -50.5q0 -6 -2 -28.5t-4 -38.5l-12 -113l200 133l64 -110l-226 -111l226 -110l-64 -111l-200 133l12 -113q2 -16 4 -38.5t2 -28.5q0 -33 -14.5 -50.5 t-55.5 -17.5t-55 17.5t-14 50.5q0 6 2 28.5t4 38.5l12 113l-201 -133z" />
<glyph unicode="+" d="M137 666v149h332v338h154v-338h331v-149h-331v-349h-154v349h-332z" />
<glyph unicode="," horiz-adv-x="471" d="M82 -244l63 359q10 53 33 82.5t74 29.5q43 0 64.5 -21.5t21.5 -55.5q0 -16 -4 -34t-10 -36l-117 -324h-125z" />
<glyph unicode="-" horiz-adv-x="888" d="M119 502v155h651v-155h-651z" />
<glyph unicode="." horiz-adv-x="471" d="M119 111q0 57 28.5 89.5t88.5 32.5q59 0 87.5 -32.5t28.5 -89.5q0 -55 -28.5 -88t-87.5 -33t-88 32.5t-29 88.5z" />
<glyph unicode="/" horiz-adv-x="884" d="M35 -96l620 1687h195l-621 -1687h-194z" />
<glyph unicode="0" d="M84 733q0 190 23.5 332.5t78 238t144.5 143.5t223 48q131 0 219 -48t141.5 -142.5t75 -236.5t21.5 -329q0 -190 -23.5 -332.5t-78 -237.5t-144.5 -142t-223 -47q-134 0 -222 47t-140 142t-73.5 235.5t-21.5 328.5zM274 739q0 -170 14.5 -283.5t45.5 -183.5 q33 -70 84 -99.5t127 -29.5t128 30t85 98.5t47 182t14 281.5t-14 283t-47 184.5t-84 99t-127 29.5t-128 -29.5t-84 -99t-46.5 -182.5t-14.5 -281z" />
<glyph unicode="1" d="M188 1221v135l289 94q37 12 76 20.5t88 8.5h78v-1479h-193v1294z" />
<glyph unicode="2" d="M139 0v256q0 113 21.5 193.5t67.5 142t115 109t165 87.5l51 23q66 29 110 56.5t69.5 58t35.5 68.5t10 87q0 76 -20.5 123t-57 74t-89 36t-115.5 9q-82 0 -176.5 -10t-157.5 -23v133q76 23 168 45.5t209 22.5q96 0 174 -20.5t133 -67.5t86 -123t31 -184 q0 -90 -20.5 -154.5t-61.5 -112t-101.5 -84t-140.5 -71.5l-51 -23q-78 -35 -130 -70.5t-85 -80.5t-46.5 -103.5t-13.5 -138.5v-98h652v-160h-832z" />
<glyph unicode="3" d="M111 43v131q35 -6 78.5 -12t91 -10.5t94.5 -6.5t86 -2q80 0 142.5 12.5t105.5 43t65.5 83t22.5 134.5q0 70 -16.5 120t-56.5 82.5t-107.5 49t-167.5 16.5h-136v131l430 506h-622v152h821v-144l-430 -502q246 -4 358.5 -102t112.5 -309q0 -207 -117.5 -323t-376.5 -116 q-106 0 -208.5 21.5t-169.5 44.5z" />
<glyph unicode="4" d="M61 408v145l637 922h164v-916h164v-151h-164v-408h-178v408h-623zM240 559h444v641z" />
<glyph unicode="5" d="M164 39v129q76 -12 167 -20.5t158 -8.5q80 0 137.5 14.5t94.5 48.5t55.5 90t18.5 140q0 70 -15.5 124t-53.5 91t-105.5 55.5t-171.5 18.5q-41 0 -111 -3t-143 -13l51 768h653v-154h-500l-30 -459q39 4 84 7t92 3q236 0 336 -112.5t100 -315.5q0 -109 -25.5 -194.5 t-81 -145t-143.5 -92.5t-213 -33q-109 0 -197 20.5t-157 41.5z" />
<glyph unicode="6" d="M129 657q0 434 133 634t402 200q63 0 129.5 -11.5t138.5 -33.5v-129q-55 8 -115.5 12t-114.5 4q-104 0 -174.5 -28.5t-114.5 -92t-66.5 -165t-29.5 -244.5q47 45 119 70.5t164 25.5q195 0 299.5 -115.5t104.5 -337.5q0 -98 -24 -183t-75 -147.5t-134 -98t-202 -35.5 q-125 0 -210 42t-136 125.5t-72.5 210.5t-21.5 297zM313 541q0 -222 68 -316q70 -92 197 -92q119 0 180 71.5t61 254.5q0 63 -12 116.5t-42 92.5t-79 60.5t-125 21.5q-125 0 -186.5 -55.5t-61.5 -153.5z" />
<glyph unicode="7" d="M98 1309v164h883v-136l-477 -1337h-195l484 1309h-695z" />
<glyph unicode="8" d="M86 412q0 135 56.5 225t150.5 133q-90 45 -135 132t-45 204q0 199 114.5 294t321.5 95q205 0 318.5 -95t113.5 -294q0 -119 -49 -201q-47 -80 -133 -125q98 -47 153.5 -140t55.5 -228q0 -111 -34 -192t-94.5 -134t-145.5 -79.5t-187 -26.5t-187.5 26.5t-145.5 79.5 t-94 134t-34 192zM266 412q0 -85 23 -140q25 -55 64.5 -87.5t89 -46t102.5 -13.5q51 0 102 13.5t90 46t63.5 88t24.5 139.5q0 68 -14 121t-46 89.5t-85 56t-133 19.5t-134.5 -19.5t-86 -56t-46 -90t-14.5 -120.5zM289 1098q0 -82 20 -133q23 -49 58.5 -77t83 -38t98.5 -10 t98 11t82 40t55.5 79t20.5 128q0 125 -56.5 188.5t-201.5 63.5t-201.5 -63.5t-56.5 -188.5z" />
<glyph unicode="9" d="M90 1028q0 98 23.5 183t75 147.5t134.5 97.5t201 35q125 0 210 -42t136.5 -127t73 -214t21.5 -301q0 -420 -118 -622.5t-378 -202.5q-78 0 -164 14t-143 31v129q59 -8 126.5 -12.5t112.5 -4.5q104 0 174 28t112 90t62.5 163.5t26.5 249.5q-47 -45 -118.5 -71t-163.5 -26 q-195 0 -299.5 116t-104.5 339zM274 1024q0 -72 12.5 -127t43.5 -94t82 -59.5t131 -20.5q131 0 184 61.5t53 196.5q0 166 -68.5 262t-195.5 96q-115 0 -178.5 -70.5t-63.5 -244.5z" />
<glyph unicode=":" horiz-adv-x="471" d="M119 111q0 57 28.5 89.5t88.5 32.5q59 0 87.5 -32.5t28.5 -89.5q0 -55 -28.5 -88t-87.5 -33t-88 32.5t-29 88.5zM119 914q0 57 28.5 89.5t88.5 32.5q59 0 87.5 -32.5t28.5 -89.5q0 -55 -28.5 -88t-87.5 -33t-88 32.5t-29 88.5z" />
<glyph unicode=";" horiz-adv-x="471" d="M82 -244l63 359q10 53 33 82.5t74 29.5q43 0 64.5 -21.5t21.5 -55.5q0 -16 -4 -34t-10 -36l-117 -324h-125zM119 914q0 57 28.5 89.5t88.5 32.5q59 0 87.5 -32.5t28.5 -89.5q0 -55 -28.5 -88t-87.5 -33t-88 32.5t-29 88.5z" />
<glyph unicode="&#x3c;" d="M170 662v135l754 344v-164l-580 -248l580 -248v-164z" />
<glyph unicode="=" d="M156 465v149h782v-149h-782zM156 866v150h782v-150h-782z" />
<glyph unicode="&#x3e;" d="M170 317v164l580 248l-580 248v164l754 -344v-135z" />
<glyph unicode="?" horiz-adv-x="944" d="M51 1323v135q78 23 166 41.5t199 18.5q215 0 329.5 -90.5t114.5 -292.5q0 -76 -15.5 -130.5t-44 -95.5t-69.5 -73.5t-94 -65.5l-29 -18q-37 -25 -61.5 -46.5t-39.5 -49t-21.5 -65.5t-6.5 -93v-105h-170v90q0 94 14.5 156.5t41 104.5t60.5 69t75 51l26 17q39 25 65.5 44 t43 42.5t24 54.5t7.5 78q0 74 -17.5 122t-54.5 76.5t-94.5 41t-137.5 12.5q-82 0 -163.5 -9.5t-147.5 -19.5zM279 109q0 59 28.5 91.5t87.5 32.5t89 -32.5t30 -89.5t-30 -89t-89 -32t-87.5 31.5t-28.5 87.5z" />
<glyph unicode="@" horiz-adv-x="1855" d="M131 487q0 199 47 361t148.5 276.5t259 177t379.5 62.5q215 0 361.5 -58.5t237.5 -166t131 -257t40 -333.5q0 -113 -15.5 -208t-54.5 -166t-102.5 -110.5t-161.5 -39.5q-80 0 -146.5 31.5t-93.5 113.5q-14 -23 -36.5 -46.5t-54.5 -43t-77 -31.5t-102 -12 q-176 0 -265 116.5t-89 338.5q0 229 92 338.5t264 109.5q88 0 149.5 -29.5t106.5 -87.5l10 97h133v-629q0 -76 28 -110t89 -34q41 0 72.5 17.5t53 60.5t32 119t10.5 193q0 150 -22.5 275.5t-90 217.5t-188.5 144.5t-318 52.5q-354 0 -511.5 -180.5t-157.5 -554.5 q0 -186 39 -319.5t124 -219.5t221 -127t331 -41q102 0 192 8t145 14v-108q-70 -18 -158.5 -34.5t-217.5 -16.5q-219 0 -377 56t-259.5 163.5t-149.5 263.5t-48 356zM707 498q0 -92 13 -151.5t39.5 -94.5t65.5 -49.5t90 -14.5q94 0 154.5 51.5t60.5 184.5v125q0 68 -17 115 t-48 75.5t-72 41t-88 12.5q-102 0 -150 -64.5t-48 -230.5z" />
<glyph unicode="A" horiz-adv-x="1273" d="M41 0l481 1495h228l483 -1495h-213l-119 393h-543l-118 -393h-199zM403 555h457l-229 766z" />
<glyph unicode="B" horiz-adv-x="1243" d="M168 0v1495h473q236 0 344.5 -90t108.5 -289q0 -133 -43 -212t-140 -124q119 -41 171.5 -131t52.5 -235q0 -199 -115 -306.5t-381 -107.5h-471zM354 160h271q70 0 127 11t98 40t64.5 81t23.5 136t-19.5 135t-58.5 80t-94 38t-127 9h-285v-530zM354 846h258q70 0 122 7 t88 32.5t54.5 75t18.5 131.5t-21.5 130t-60.5 72.5t-95 31.5t-126 7h-238v-487z" />
<glyph unicode="C" horiz-adv-x="1165" d="M129 725q0 197 32 346.5t100.5 248.5t180 149.5t271.5 50.5q100 0 191 -17.5t167 -46.5v-141q-78 10 -167 22.5t-167 12.5q-111 0 -187.5 -28t-125.5 -96.5t-70.5 -183t-21.5 -286.5q0 -178 23.5 -296t73.5 -187.5t131 -98.5t196 -29q80 0 165 12.5t160 22.5v-141 q-76 -29 -168 -46.5t-200 -17.5q-168 0 -281 48.5t-180.5 143.5t-95 235.5t-27.5 322.5z" />
<glyph unicode="D" horiz-adv-x="1374" d="M168 0v1495h465q162 0 277.5 -42t190.5 -133t109.5 -231.5t34.5 -336.5q0 -391 -150.5 -571.5t-467.5 -180.5h-459zM362 170h259q102 0 180 23.5t131 87t80.5 176t27.5 288.5q0 178 -27.5 291t-80.5 177.5t-132 88t-179 23.5h-259v-1155z" />
<glyph unicode="E" horiz-adv-x="1132" d="M168 0v1495h831v-166h-634v-475h573v-168h-573v-520h657v-166h-854z" />
<glyph unicode="F" horiz-adv-x="1062" d="M168 0v1495h803v-166h-602v-493h534v-166h-534v-670h-201z" />
<glyph unicode="G" horiz-adv-x="1298" d="M129 727q0 197 32 345.5t104.5 247.5t188 149.5t281.5 50.5q111 0 208 -18.5t175 -47.5v-141q-78 10 -173 23.5t-181 13.5q-117 0 -199 -29t-134 -97.5t-76.5 -183t-24.5 -288.5q0 -176 24.5 -294t75.5 -189.5t132 -102.5t192 -31q117 0 227 29v454h-283v154h476v-713 q-98 -41 -210 -62.5t-231 -21.5q-176 0 -292.5 50.5t-185.5 146.5t-97.5 235.5t-28.5 319.5z" />
<glyph unicode="H" horiz-adv-x="1384" d="M168 0v1495h201v-627h647v627h201v-1495h-201v698h-647v-698h-201z" />
<glyph unicode="I" horiz-adv-x="536" d="M168 0v1495h201v-1495h-201z" />
<glyph unicode="J" horiz-adv-x="1021" d="M66 43v133q72 -10 150.5 -18t141.5 -8q76 0 132.5 14t92 50t53 97.5t17.5 155.5v1028h201v-1008q0 -242 -101.5 -376t-334.5 -134q-98 0 -192.5 20.5t-159.5 45.5z" />
<glyph unicode="K" horiz-adv-x="1261" d="M168 0v1495h194v-647h166q82 0 120 25.5t65 78.5l272 543h193l-322 -623q-29 -55 -61 -90l254 -530q16 -35 30.5 -59.5t30.5 -40t37.5 -22.5t52.5 -7h31v-121q-29 -6 -56.5 -8t-50.5 -2q-109 0 -162 46t-92 130l-245 520q-23 -4 -45.5 -6t-44.5 -2h-173v-680h-194z" />
<glyph unicode="L" horiz-adv-x="1073" d="M168 0v1495h201v-1325h639v-170h-840z" />
<glyph unicode="M" horiz-adv-x="1568" d="M168 0v1495h174l444 -764l453 764h162v-1495h-189v1157l-366 -622h-129l-361 616v-1151h-188z" />
<glyph unicode="N" horiz-adv-x="1388" d="M168 0v1495h176l690 -1155v1155h187v-1495h-179l-688 1151v-1151h-186z" />
<glyph unicode="O" horiz-adv-x="1427" d="M129 743q0 193 33 338.5t103.5 242.5t182 146.5t269.5 49.5q162 0 272.5 -48.5t179 -144.5t99 -240.5t30.5 -334.5q0 -193 -32.5 -338.5t-103 -242.5t-182.5 -146.5t-269 -49.5q-162 1 -273 48q-111 49 -179.5 145t-99 240.5t-30.5 334.5zM332 750q0 -174 23.5 -291 t70.5 -189q47 -70 118.5 -99.5t168.5 -29.5q98 0 169.5 30t120 99.5t71 186t22.5 288.5q0 174 -23.5 291t-71 187.5t-119 100.5t-167.5 30q-98 0 -170 -30t-120 -99.5t-70.5 -186t-22.5 -288.5z" />
<glyph unicode="P" horiz-adv-x="1187" d="M168 0v1495h444q256 0 374 -108.5t118 -335.5q0 -219 -116 -338t-376 -119h-241v-594h-203zM371 754h225q76 0 134 13t96 46t57.5 89t19.5 142q0 84 -18.5 140.5t-56 89.5t-96 46t-136.5 13h-225v-579z" />
<glyph unicode="Q" horiz-adv-x="1427" d="M129 743q0 193 33 338.5t103.5 242.5t182 146.5t269.5 49.5q162 0 272.5 -48.5t179 -144.5t99 -240.5t30.5 -334.5q0 -356 -115.5 -549t-381.5 -219v-47q0 -104 41 -151.5t153 -47.5h29.5t34.5 2v-121q-29 -6 -65 -10t-72 -4q-160 0 -233 81t-73 255v43q-135 12 -227 66 t-150.5 149.5t-84 231.5t-25.5 312zM332 750q0 -174 23.5 -291t70.5 -189q47 -70 118.5 -99.5t168.5 -29.5q98 0 169.5 30t120 99.5t71 186t22.5 288.5q0 174 -23.5 291t-71 187.5t-119 100.5t-167.5 30q-98 0 -170 -30t-120 -99.5t-70.5 -186t-22.5 -288.5z" />
<glyph unicode="R" horiz-adv-x="1234" d="M168 0v1495h434q256 0 378 -107.5t122 -324.5q0 -59 -11.5 -118.5t-40 -114t-80.5 -99.5t-134 -74l145 -405q27 -72 57.5 -100.5t94.5 -28.5h30v-121q-29 -6 -56.5 -8t-47.5 -2q-111 0 -164 45t-84 131l-162 450h-287v-618h-194zM362 776h228q76 0 134 12.5t98 44 t60.5 86t20.5 138.5q0 160 -76.5 218t-234.5 58h-230v-557z" />
<glyph unicode="S" horiz-adv-x="1140" d="M113 1090q0 211 123.5 319.5t365.5 108.5q113 0 210 -20.5t171 -49.5v-137q-76 10 -173 22.5t-189 12.5q-70 0 -127.5 -8.5t-99.5 -34t-64.5 -72.5t-22.5 -123q0 -66 17.5 -108t53.5 -68.5t88 -44t124 -31.5l65 -14q94 -20 165 -50t118 -77t70.5 -117t23.5 -170 q0 -121 -33.5 -207t-97 -140t-156 -79t-208.5 -25q-131 0 -233.5 26t-174.5 54v138q88 -16 190.5 -28.5t194.5 -12.5q76 0 135.5 9t100.5 37.5t62.5 81t21.5 136.5q0 66 -14.5 107.5t-48.5 68.5t-89 44t-135 36l-62 14q-82 18 -150.5 46t-117.5 74t-76.5 113.5t-27.5 168.5z " />
<glyph unicode="T" horiz-adv-x="1208" d="M66 1327v168h1077v-168h-438v-1327h-201v1327h-438z" />
<glyph unicode="U" horiz-adv-x="1382" d="M168 684v811h201v-803q0 -178 18.5 -286.5t58 -167t99 -78t143.5 -19.5t145.5 19.5t101.5 78t59.5 165t19.5 282.5v809h200v-801q0 -188 -26.5 -324.5t-89 -224.5t-165 -129t-253.5 -41q-156 0 -255 41t-156.5 127t-79 220.5t-21.5 320.5z" />
<glyph unicode="V" horiz-adv-x="1241" d="M41 1495h219l367 -1280l366 1280h207l-467 -1495h-225z" />
<glyph unicode="W" horiz-adv-x="1781" d="M61 1495h205l256 -1262l281 1184h184l281 -1184l256 1262h196l-344 -1495h-211l-276 1165l-277 -1165h-206z" />
<glyph unicode="X" horiz-adv-x="1234" d="M43 0l451 778l-422 717h229l315 -563l318 563h203l-414 -707l469 -788h-229l-361 635l-358 -635h-201z" />
<glyph unicode="Y" horiz-adv-x="1181" d="M41 1495h215l338 -686l338 686h209l-447 -852v-643h-200v633z" />
<glyph unicode="Z" horiz-adv-x="1204" d="M92 0v150l782 1181h-770v164h992v-149l-783 -1182h799v-164h-1020z" />
<glyph unicode="[" horiz-adv-x="677" d="M176 -195v1786h447v-159h-261v-1467h261v-160h-447z" />
<glyph unicode="\" horiz-adv-x="884" d="M35 1591h194l621 -1687h-195z" />
<glyph unicode="]" horiz-adv-x="677" d="M55 -35h260v1467h-260v159h447v-1786h-447v160z" />
<glyph unicode="^" d="M125 780l350 695h143l351 -695h-178l-244 514l-242 -514h-180z" />
<glyph unicode="_" horiz-adv-x="1024" d="M0 -166h1024v-151h-1024v151z" />
<glyph unicode="`" horiz-adv-x="1024" d="M252 1395q0 20 8 39q14 31 31.5 43t40.5 12q29 0 74 -21l348 -168l-45 -110l-369 119q-37 12 -62.5 31.5t-25.5 54.5z" />
<glyph unicode="a" horiz-adv-x="1040" d="M84 291q0 86 26.5 146.5t78 98t123 55t161.5 17.5h211v51q0 72 -17.5 117t-50 69.5t-80 34t-106.5 9.5q-29 0 -64.5 -2t-72.5 -5t-71 -7.5t-56 -6.5v117q61 23 141 40t178 17q195 0 287 -87t92 -287v-439q0 -66 21.5 -94.5t81.5 -28.5h26v-104q-16 -4 -40.5 -7t-45.5 -3 q-84 0 -134 28.5t-73 96.5q-47 -66 -117.5 -101.5t-168.5 -35.5q-330 0 -330 311zM258 301q0 -98 51 -136t131 -38q125 0 184.5 66.5t59.5 171.5v114h-211q-109 0 -162 -41t-53 -137z" />
<glyph unicode="b" horiz-adv-x="1159" d="M152 0v1495h188v-573q43 47 113.5 84.5t193.5 37.5q205 0 303.5 -139t98.5 -387q0 -268 -110 -405.5t-318 -137.5q-117 0 -185.5 37t-116.5 97l-14 -109h-153zM336 436q0 -86 20.5 -143t56.5 -93t84 -51.5t103 -15.5q125 0 189.5 84t64.5 291q0 111 -17.5 183.5 t-50 115.5t-81 61.5t-107.5 18.5q-57 0 -105.5 -14.5t-83 -48t-54 -90t-19.5 -140.5v-158z" />
<glyph unicode="c" horiz-adv-x="917" d="M111 504q0 262 102 400t336 138q82 0 150.5 -13t127.5 -30v-125q-59 4 -117.5 8.5t-107.5 4.5q-80 0 -136 -14.5t-91 -56.5t-51.5 -117.5t-16.5 -198.5q0 -111 14.5 -181.5t52.5 -112.5t103.5 -57.5t165.5 -15.5q35 0 85 2t110 6v-125q-59 -16 -129 -27.5t-146 -11.5 q-246 0 -349 132.5t-103 394.5z" />
<glyph unicode="d" horiz-adv-x="1159" d="M111 500q0 268 109.5 406t314.5 138q109 0 174 -32.5t110 -83.5v567h189v-1495h-156l-14 115q-23 -27 -50.5 -51.5t-66.5 -44t-89 -32t-116 -12.5q-209 0 -307 138.5t-98 386.5zM305 512q0 -111 17.5 -183.5t50.5 -115.5t81 -61.5t107 -18.5q57 0 105.5 14.5t83 48t54 90 t19.5 140.5v158q0 86 -20.5 143t-56 93t-84 51.5t-103.5 15.5q-125 0 -189.5 -84t-64.5 -291z" />
<glyph unicode="e" horiz-adv-x="1050" d="M111 502q0 283 111.5 412.5t322.5 129.5q109 0 184.5 -33.5t122.5 -100t67.5 -163t20.5 -221.5v-71h-641q6 -106 29.5 -171t66.5 -98.5t103.5 -45t138.5 -11.5q72 0 133 6t119 15v-123q-61 -25 -140 -38.5t-163 -13.5q-256 0 -365.5 132.5t-109.5 394.5zM297 588h463 q0 162 -48 234.5t-169 72.5q-131 0 -184.5 -79t-61.5 -228z" />
<glyph unicode="f" horiz-adv-x="768" d="M35 874v109l182 35v137q0 168 90 260t246 92q55 0 110.5 -9t94.5 -21v-121q-29 2 -73 4t-73 2q-49 0 -88 -8t-65.5 -31t-39.5 -66t-13 -112v-125h311v-146h-311v-874h-189v874h-182z" />
<glyph unicode="g" horiz-adv-x="1159" d="M111 506q0 264 109.5 401t318.5 137q117 0 185.5 -36.5t115.5 -96.5l14 109h154v-1034q0 -223 -117 -339t-359 -116q-82 0 -167.5 12.5t-155.5 34.5v119q23 -2 55.5 -4t67.5 -4t69.5 -3t63.5 -1q88 0 153.5 13t110.5 48t67.5 94.5t22.5 153.5v104q-45 -45 -114.5 -77.5 t-186.5 -32.5q-209 0 -308 137t-99 381zM305 518q0 -109 17.5 -180.5t50.5 -114.5t81 -60.5t107 -17.5q57 0 105.5 14.5t83 47.5t54 88t19.5 139v154q0 84 -20.5 141t-56 92t-84 50.5t-103.5 15.5q-61 0 -109.5 -19.5t-80 -62.5t-48 -113.5t-16.5 -173.5z" />
<glyph unicode="h" horiz-adv-x="1136" d="M152 0v1495h190v-573q49 53 121 87.5t184 34.5q100 0 168 -29.5t108 -81.5t56 -124t16 -158v-651h-188v631q0 141 -50 197.5t-161 56.5q-53 0 -100 -13.5t-82 -43t-54.5 -79t-19.5 -118.5v-631h-188z" />
<glyph unicode="i" horiz-adv-x="491" d="M131 1346q0 120 115 120h2q59 0 86.5 -30.5t27.5 -87.5q0 -119 -114 -119q-59 0 -88 30.5t-29 86.5zM152 0v1020h188v-1020h-188z" />
<glyph unicode="j" horiz-adv-x="512" d="M-154 -317q27 -2 60 -4.5t67 -2.5q51 0 89 9.5t63 34t36 66.5t11 108v1126h188v-1122q0 -190 -79.5 -278.5t-237.5 -88.5q-23 0 -50.5 3t-54 8t-50 10.5t-42.5 11.5v119zM152 1346q0 120 114 120h2q59 0 87 -30.5t28 -85.5q0 -121 -115 -121q-59 0 -87.5 30.5t-28.5 86.5 z" />
<glyph unicode="k" horiz-adv-x="1032" d="M152 0v1495h186v-872h78q37 0 61.5 6t43 18t32.5 29.5t29 40.5l184 303h190l-225 -369q-14 -23 -30.5 -43t-34.5 -39l186 -356q31 -59 58.5 -80.5t68.5 -21.5h27v-109q-27 -4 -49.5 -7t-45.5 -3q-74 0 -125 31.5t-90 105.5l-182 354q-16 -4 -34.5 -6t-35.5 -2h-106v-475 h-186z" />
<glyph unicode="l" horiz-adv-x="526" d="M152 219v1276h188v-1266q0 -68 24.5 -93t86.5 -25h28v-109q-29 -6 -54.5 -8t-51.5 -2q-102 0 -161.5 52t-59.5 175z" />
<glyph unicode="m" horiz-adv-x="1689" d="M152 0v1020h151l16 -111q43 51 115 93t189 42q111 0 175 -41.5t99 -111.5q20 27 50 53.5t69 49t91 36.5t120 14q94 0 155.5 -30.5t98.5 -85t52 -126t15 -151.5v-651h-188v631q0 141 -45 197.5t-144 56.5q-47 0 -88 -12.5t-71.5 -42t-49 -77.5t-18.5 -118v-635h-188v631 q0 141 -45 197.5t-144 56.5q-47 0 -89 -13.5t-72.5 -43t-48 -79t-17.5 -118.5v-631h-188z" />
<glyph unicode="n" horiz-adv-x="1136" d="M152 0v1020h151l16 -115q51 59 126 99t200 40q100 0 168 -29.5t109 -81.5t57 -124t16 -158v-651h-188v631q0 141 -50 197.5t-161 56.5q-53 0 -100 -13.5t-82 -43t-54.5 -79t-19.5 -118.5v-631h-188z" />
<glyph unicode="o" horiz-adv-x="1126" d="M111 508q0 268 111.5 402t342.5 134q229 0 340 -133t111 -399q0 -268 -112 -402.5t-343 -134.5q-229 0 -339.5 133.5t-110.5 399.5zM303 512q0 -109 16.5 -180.5t49.5 -116.5q35 -45 83 -63.5t113 -18.5q63 0 111.5 18.5t80 62.5t48 115.5t16.5 180.5q0 106 -16.5 179 t-50 117t-82.5 62.5t-113 18.5q-63 0 -111.5 -18.5t-80 -61.5t-48 -116t-16.5 -179z" />
<glyph unicode="p" horiz-adv-x="1159" d="M152 -457v1477h155l15 -115q20 27 48.5 51.5t67.5 44t89.5 31.5t115.5 12q209 0 307.5 -138t98.5 -386q0 -268 -110 -406.5t-314 -138.5q-109 0 -174.5 33t-110.5 84v-549h-188zM336 436q0 -86 20.5 -143t56.5 -93t84 -51.5t103 -15.5q125 0 189.5 84t64.5 291 q0 111 -17.5 183.5t-50 115.5t-81 61.5t-107.5 18.5q-57 0 -105.5 -14.5t-83 -48t-54 -90t-19.5 -140.5v-158z" />
<glyph unicode="q" horiz-adv-x="1159" d="M111 502q0 268 109.5 405t318.5 137q117 0 185.5 -36.5t115.5 -96.5l14 109h154v-1477h-189v555q-45 -47 -115.5 -85t-191.5 -38q-205 0 -303 139.5t-98 387.5zM305 512q0 -111 17.5 -183.5t50.5 -115.5t81 -61.5t107 -18.5q57 0 105.5 14.5t83 48t54 90t19.5 140.5v158 q0 86 -20.5 143t-56 93t-84 51.5t-103.5 15.5q-125 0 -189.5 -84t-64.5 -291z" />
<glyph unicode="r" horiz-adv-x="751" d="M152 0v1020h151l21 -129q104 145 309 145q33 0 67 -6v-156q-16 2 -30.5 2.5t-28.5 0.5q-152 0 -226.5 -72t-74.5 -232v-573h-188z" />
<glyph unicode="s" horiz-adv-x="937" d="M104 739q0 82 27 139.5t76 94.5t117.5 53t152.5 16q92 0 169 -13t147 -36v-121q-59 6 -132 12.5t-151 6.5q-53 0 -96 -4t-74 -19.5t-48.5 -43t-17.5 -76.5q0 -39 11.5 -62.5t35 -39t60.5 -24t90 -16.5l55 -8q72 -10 129.5 -28.5t97.5 -52.5t61.5 -87t21.5 -135 q0 -170 -96.5 -244t-266.5 -74q-51 0 -102.5 5.5t-98.5 13.5t-87 17.5t-66 17.5v121q61 -8 142 -14.5t159 -6.5q61 0 107 5t75 22.5t43 48.5t14 80q0 41 -10 66.5t-33.5 42t-63.5 25.5t-99 17l-68 11q-55 8 -106.5 25.5t-89 49t-61.5 83.5t-24 132z" />
<glyph unicode="t" horiz-adv-x="796" d="M35 874v109l182 35v313h189v-311h311v-146h-311v-536q0 -127 49 -169t147 -42q74 0 133 6v-123q-43 -12 -94 -21t-109 -9q-166 0 -240.5 81.5t-74.5 268.5v544h-182z" />
<glyph unicode="u" horiz-adv-x="1130" d="M141 369v651h189v-631q0 -141 50 -197.5t159 -56.5q53 0 99 13.5t80 43t53.5 77.5t19.5 120v631h188v-1020h-152l-16 115q-51 -59 -125 -99.5t-199 -40.5q-100 0 -166.5 29t-106.5 81t-56.5 125t-16.5 159z" />
<glyph unicode="v" horiz-adv-x="1011" d="M35 1020h205l272 -832l272 832h193l-367 -1020h-209z" />
<glyph unicode="w" horiz-adv-x="1361" d="M43 1020h195l176 -827l190 768h172l185 -768l178 827h180l-258 -1020h-193l-186 754l-186 -754h-195z" />
<glyph unicode="x" horiz-adv-x="946" d="M35 0l338 528l-320 492h203l219 -361l223 361h183l-314 -483l344 -537h-202l-244 399l-248 -399h-182z" />
<glyph unicode="y" horiz-adv-x="1013" d="M35 1020h207l288 -805l256 805h193l-410 -1176q-27 -76 -56.5 -134t-67 -98t-87 -60.5t-112.5 -20.5q-51 0 -95.5 9t-78.5 20v118q25 -2 52.5 -3t55.5 -1q49 0 82 7.5t58.5 30t46 64.5t45.5 113l34 105z" />
<glyph unicode="z" horiz-adv-x="937" d="M88 0v135l533 737h-523v148h733v-133l-532 -737h543v-150h-754z" />
<glyph unicode="{" horiz-adv-x="702" d="M41 631v143q61 6 94 23.5t49.5 42t19.5 53.5t3 59v338q0 162 84 238t209 76q51 0 94 -7.5t82 -19.5v-133q-27 4 -52.5 4h-58.5q-88 0 -132 -35t-44 -145v-350q0 -23 -3 -55t-17.5 -63.5t-44 -58t-80.5 -39.5q51 -12 80.5 -38.5t44 -58.5t17.5 -63.5t3 -54.5v-350 q0 -111 44 -145.5t132 -34.5h58.5t52.5 4v-133q-39 -12 -82 -19.5t-94 -7.5q-61 0 -115.5 18.5t-93.5 56.5t-61.5 97.5t-22.5 141.5v338q0 31 -3 59.5t-19.5 53t-49.5 42t-94 23.5z" />
<glyph unicode="|" horiz-adv-x="520" d="M166 -27v1618h188v-1618h-188z" />
<glyph unicode="}" horiz-adv-x="702" d="M27 -39q27 -4 52 -4h58q88 0 132 35t44 145v350q0 23 3 54.5t17.5 63.5t44.5 58.5t81 38.5q-51 12 -81 39t-44.5 58.5t-17.5 63.5t-3 55v350q0 111 -44 145.5t-132 34.5h-58.5t-51.5 -4v133q39 12 82 19.5t94 7.5q125 0 209 -76t84 -238v-338q0 -31 3 -59.5t19.5 -53 t49 -42t94.5 -23.5v-143q-61 -6 -94 -23.5t-49.5 -42t-19.5 -53.5t-3 -59v-338q0 -82 -22.5 -141.5t-61.5 -97.5t-93.5 -56.5t-115.5 -18.5q-51 0 -94 7.5t-82 19.5v133z" />
<glyph unicode="~" d="M125 874q49 72 116.5 120t145.5 48q51 0 92 -16t77 -35.5t72 -36t79 -16.5q47 0 81.5 24.5t75.5 75.5l103 -86q-49 -72 -117 -120t-145 -48q-53 0 -93.5 16.5t-76 36t-71.5 36t-79 16.5q-47 0 -82 -24.5t-76 -76.5z" />
<glyph unicode="&#xa1;" horiz-adv-x="532" d="M150 913q0 55 28.5 88t87.5 33t88 -32.5t29 -88.5q0 -57 -29 -89.5t-88 -32.5t-87.5 32.5t-28.5 89.5zM164 -471l14 1102h176l15 -1102h-205z" />
<glyph unicode="&#xa2;" d="M166 739q0 242 83 369t275 152v225h168v-221q57 -4 103.5 -16.5t95.5 -26.5v-121q-57 6 -117.5 11t-114.5 5q-82 0 -138 -16.5t-92 -58.5t-51.5 -114.5t-15.5 -185.5q0 -111 16.5 -183.5t52.5 -115.5t93.5 -60t141.5 -17q53 0 115.5 5t121.5 11v-121q-51 -16 -101 -28.5 t-110 -16.5v-227h-168v231q-190 23 -274 150t-84 370z" />
<glyph unicode="&#xa3;" d="M86 666v153h152v178q0 262 106.5 379t310.5 117q84 0 161 -16.5t147 -38.5v-125q-66 10 -133.5 16t-129.5 6q-72 0 -124 -13t-85.5 -49t-50 -100.5t-16.5 -166.5v-187h473v-153h-473v-506h584v-160h-770v666h-152z" />
<glyph unicode="&#xa4;" d="M76 375l139 139q-39 86 -39 223t39 224l-139 139l112 108l125 -127q84 70 234 70t233 -70l125 127l113 -108l-139 -139q39 -86 39 -224q0 -137 -39 -223l139 -139l-113 -109l-125 127q-84 -70 -233 -69q-150 0 -234 69l-125 -127zM334 737q0 -158 53 -217q55 -57 160 -57 q104 0 158.5 58.5t54.5 215.5q0 158 -54.5 216.5t-158.5 58.5t-158.5 -58.5t-54.5 -216.5z" />
<glyph unicode="&#xa5;" d="M39 1475h199l313 -650l313 650h193l-367 -693h256v-133h-307v-205h307v-133h-307v-311h-182v311h-312v133h312v205h-312v133h258z" />
<glyph unicode="&#xa6;" horiz-adv-x="522" d="M166 -27v598h190v-598h-190zM166 993v598h190v-598h-190z" />
<glyph unicode="&#xa7;" horiz-adv-x="1032" d="M102 584q0 117 46.5 191.5t132.5 115.5q-53 25 -88 55.5t-54.5 66.5t-27 74.5t-7.5 79.5q0 186 115 269.5t311 83.5q117 0 203 -22.5t158 -45.5v-117q-86 12 -163 22.5t-183 10.5q-53 0 -102.5 -5t-87.5 -24.5t-61.5 -58.5t-23.5 -104q0 -41 11.5 -71t40 -51.5t78 -38 t124.5 -32.5l47 -10q92 -20 160 -46t112 -66t66.5 -97t22.5 -139q0 -125 -47 -196t-129 -112q113 -51 149.5 -125.5t36.5 -162.5q0 -102 -32.5 -172t-90 -112t-135.5 -60.5t-168 -18.5q-119 0 -220 23.5t-171 46.5v117q98 -14 183 -23.5t196 -9.5q45 0 93 4t87 23.5 t63.5 58.5t24.5 108q0 51 -15.5 85t-48 56.5t-84 37t-120.5 30.5l-47 10q-78 16 -143.5 41t-112.5 64t-73 98.5t-26 147.5zM272 596q0 -47 10.5 -81t38 -58.5t73.5 -43t120 -32.5l96 -21q27 8 53.5 25.5t48 46.5t35 71t13.5 99q0 51 -12.5 88t-41 62.5t-74.5 43t-114 31.5 l-90 19q-29 -8 -56.5 -25.5t-49 -46.5t-36 -73t-14.5 -105z" />
<glyph unicode="&#xa8;" horiz-adv-x="1024" d="M225 1346q0 113 109 112q53 0 80.5 -28.5t27.5 -81.5q1 -113 -108 -113q-55 0 -82 28.5t-27 82.5zM584 1346q0 113 108 112q55 0 82 -28.5t27 -81.5q0 -113 -109 -113q-53 0 -80.5 28.5t-27.5 82.5z" />
<glyph unicode="&#xa9;" horiz-adv-x="1638" d="M117 745q0 195 51 340.5t144.5 242.5t223.5 145.5t287 48.5q156 0 285 -48.5t221 -144.5t142.5 -241.5t50.5 -337.5q0 -195 -51.5 -341.5t-144.5 -242.5t-223 -144.5t-286 -48.5q-158 0 -287 47q-129 49 -221 145.5t-142 241t-50 338.5zM264 748q0 -185 47 -308 t126 -196.5t178.5 -104t203.5 -30.5t203.5 30.5t178.5 104t126 196.5t47 308q0 184 -47 307t-126 196.5t-178 104t-204 30.5q-104 0 -203.5 -30.5t-178.5 -104t-126 -196.5t-47 -307zM498 739q0 199 78.5 307.5t263.5 108.5q66 0 118 -11t103 -26v-98q-43 4 -90 9t-94 5 q-59 0 -102.5 -12t-71 -44t-40 -87t-12.5 -141t13.5 -142.5t41 -89.5t71.5 -45t106 -12q47 0 97 5t91 9v-98q-51 -14 -104.5 -25.5t-122.5 -11.5q-188 0 -267 99.5t-79 299.5z" />
<glyph unicode="&#xaa;" horiz-adv-x="786" d="M84 971q0 125 72.5 177t201.5 52h148v12q0 51 -12.5 83t-35 50.5t-55 24.5t-73.5 6t-98.5 -5t-90.5 -9v94q47 16 103.5 28.5t128.5 12.5q141 0 207.5 -62.5t66.5 -203.5v-297q0 -47 17.5 -67.5t62.5 -20.5h21v-84q-10 -4 -30 -6t-34 -2q-61 0 -99 20.5t-57 69.5 q-33 -47 -83 -73t-121 -26q-240 0 -240 226zM225 973q0 -70 34 -96.5t85 -26.5q86 0 124 48t38 120v82h-137q-72 0 -108 -30t-36 -97z" />
<glyph unicode="&#xab;" horiz-adv-x="1009" d="M102 512l244 369h182l-243 -369l243 -369h-182zM471 512l244 369h182l-244 -369l244 -369h-182z" />
<glyph unicode="&#xac;" d="M158 762v149h772v-428h-154v279h-618z" />
<glyph unicode="&#xad;" horiz-adv-x="888" d="M119 502v155h651v-155h-651z" />
<glyph unicode="&#xae;" horiz-adv-x="1032" d="M96 1073q0 115 32 201t88 142.5t134 85t170 28.5t168 -27.5t131 -85t86 -142.5t31 -198q0 -115 -32 -200.5t-88 -143t-133 -85t-169 -27.5q-92 -1 -170 26q-76 29 -131 86.5t-86 141t-31 198.5zM193 1075q-1 -104 26 -176q29 -70 74 -112t103.5 -60t119.5 -18t119.5 18 t103.5 60t73 113t28 175t-28 175t-73 113t-103 60.5t-120 18.5q-61 0 -119.5 -18.5t-103.5 -60.5t-72.5 -112.5t-27.5 -175.5zM362 852v453h170q152 0 152 -140q0 -29 -13.5 -66.5t-66.5 -58.5l41 -92q10 -23 17.5 -29t23.5 -6h8v-61q-10 -2 -19 -2h-20q-35 0 -56 13.5 t-38 54.5l-47 108h-61v-174h-91zM453 1108h71q33 0 50.5 11t17.5 46t-16.5 47.5t-51.5 12.5h-71v-117z" />
<glyph unicode="&#xaf;" horiz-adv-x="1024" d="M231 1270v149h560v-149h-560z" />
<glyph unicode="&#xb0;" horiz-adv-x="759" d="M84 1202q0 66 22.5 120t62.5 93t94 60.5t118 21.5q63 0 117.5 -21.5t94.5 -60.5t62.5 -93t22.5 -120t-22.5 -120t-62.5 -93t-94.5 -60.5t-117.5 -21.5t-117.5 21.5t-95.5 60.5q-39 39 -61.5 93.5t-22.5 119.5zM221 1202q0 -80 43 -125q45 -45 117 -45t116 45t44 125 t-44 125t-116 45t-116 -45t-44 -125z" />
<glyph unicode="&#xb1;" d="M137 697v149h332v338h154v-338h331v-149h-331v-349h-154v349h-332zM164 2v149h766v-149h-766z" />
<glyph unicode="&#xb2;" horiz-adv-x="731" d="M131 756v129q0 63 15.5 107t43 75t65.5 52.5t85 43.5l22 11q59 27 78 48t19 58q0 51 -30 71.5t-97 20.5q-45 0 -93.5 -3t-95.5 -9v96q49 12 101.5 22.5t111.5 10.5q106 0 175 -46t69 -155q0 -45 -12.5 -77.5t-36 -57.5t-56 -43t-75.5 -37l-25 -10q-41 -18 -66.5 -33.5 t-39 -37t-17.5 -51.5t-4 -73h330v-112h-467z" />
<glyph unicode="&#xb3;" horiz-adv-x="731" d="M109 774v96q20 -4 47.5 -6t55.5 -4t53.5 -3t41.5 -1q78 0 117 21.5t39 87.5q0 57 -33 83.5t-119 26.5h-84v84l195 205h-305v111h458v-93l-200 -208q109 -6 167 -57.5t58 -151.5q0 -223 -270 -224q-59 0 -119.5 10.5t-101.5 22.5z" />
<glyph unicode="&#xb4;" horiz-adv-x="1024" d="M268 1300l348 168q45 20 74 21q23 0 40.5 -12.5t31.5 -42.5q8 -18 8 -39q0 -35 -25.5 -54.5t-62.5 -31.5l-369 -119z" />
<glyph unicode="&#xb5;" horiz-adv-x="1140" d="M152 -457v1477h188v-637q0 -141 51 -197.5t162 -56.5q51 0 96 13.5t79 46t53.5 86t19.5 133.5v612h188v-1020h-151l-17 115q-47 -59 -112.5 -99.5t-176.5 -40.5q-63 0 -110 14.5t-82 39.5v-486h-188z" />
<glyph unicode="&#xb6;" horiz-adv-x="1267" d="M92 1092q0 199 104.5 301t329.5 102h578v-1755h-170v1593h-189v-1593h-170v944h-49q-229 0 -331.5 105.5t-102.5 302.5z" />
<glyph unicode="&#xb7;" horiz-adv-x="471" d="M119 740q0 57 28.5 89.5t88.5 32.5q59 0 87.5 -32.5t28.5 -89.5q0 -55 -28.5 -88t-87.5 -33t-88 32.5t-29 88.5z" />
<glyph unicode="&#xb8;" horiz-adv-x="1024" d="M297 -211q16 -2 26.5 -2h20.5q51 0 80 11.5t44 34t19.5 56t4.5 80.5v49h143v-61q0 -150 -46 -220.5t-171 -70.5q-27 0 -58.5 3t-62.5 12v108z" />
<glyph unicode="&#xb9;" horiz-adv-x="731" d="M150 1309v102l155 45q29 8 56.5 13.5t60.5 5.5h51v-719h-143v585z" />
<glyph unicode="&#xba;" horiz-adv-x="847" d="M96 1122q0 377 330 377q326 0 326 -375q0 -379 -330 -379q-326 0 -326 377zM250 1124q0 -141 45 -196t131 -56q82 0 127 54.5t45 195.5t-45 195.5t-131 54.5q-82 0 -127 -53t-45 -195z" />
<glyph unicode="&#xbb;" horiz-adv-x="1011" d="M113 143l243 369l-243 369h182l244 -369l-244 -369h-182zM483 143l244 369l-244 369h183l243 -369l-243 -369h-183z" />
<glyph unicode="&#xbc;" horiz-adv-x="1650" d="M150 1309v102l155 45q29 8 56.5 13.5t60.5 5.5h51v-719h-143v585zM323 0l834 1475h172l-834 -1475h-172zM1012 176v94l334 451h113v-443h94v-102h-94v-174h-125v174h-322zM1139 278h195v260z" />
<glyph unicode="&#xbd;" horiz-adv-x="1650" d="M150 1309v102l155 45q29 8 56.5 13.5t60.5 5.5h51v-719h-143v585zM266 0l834 1475h172l-834 -1475h-172zM1049 2v129q0 63 15.5 107t43 75t65.5 52.5t85 43.5l22 11q59 27 78 48t19 58q0 51 -30 71.5t-97 20.5q-45 0 -93.5 -3t-95.5 -9v96q49 12 101.5 22.5t111.5 10.5 q106 0 175 -46t69 -155q0 -45 -12.5 -77.5t-36 -57.5t-56 -43t-75.5 -37l-25 -10q-41 -18 -66.5 -33.5t-39 -37t-17.5 -51.5t-4 -73h330v-112h-467z" />
<glyph unicode="&#xbe;" horiz-adv-x="1650" d="M119 774v96q20 -4 47.5 -6t55.5 -4t53.5 -3t41.5 -1q78 0 117 21.5t39 87.5q0 57 -33 83.5t-119 26.5h-84v84l195 205h-305v111h458v-93l-200 -208q109 -6 167 -57.5t58 -151.5q0 -223 -270 -224q-59 0 -119.5 10.5t-101.5 22.5zM370 0l834 1475h172l-834 -1475h-172z M1012 176v94l334 451h113v-443h94v-102h-94v-174h-125v174h-322zM1139 278h195v260z" />
<glyph unicode="&#xbf;" horiz-adv-x="944" d="M115 -109q0 76 15 130.5t44 95.5t70 73.5t94 65.5l29 18q37 25 61.5 46.5t39.5 49t21.5 65.5t6.5 93v105h170v-90q0 -96 -14.5 -157.5t-41 -103.5t-61.5 -69t-74 -51l-26 -17q-39 -25 -66 -44t-43 -42.5t-23.5 -54.5t-7.5 -78q0 -74 17.5 -122t54.5 -76.5t94 -41 t137 -12.5q82 0 164 9.5t148 19.5v-135q-78 -23 -166 -41.5t-199 -18.5q-215 0 -329.5 90.5t-114.5 292.5zM461 915q0 57 29.5 89t89.5 32q59 0 87.5 -31.5t28.5 -86.5q0 -59 -28.5 -92t-87.5 -33t-89 32.5t-30 89.5z" />
<glyph unicode="&#xc0;" horiz-adv-x="1273" d="M41 0l481 1495h228l483 -1495h-213l-119 393h-543l-118 -393h-199zM340 1810q0 18 8 41q12 31 32.5 44.5t43.5 13.5q20 0 43.5 -11.5t72.5 -33.5l318 -150l-43 -106l-334 100q-63 18 -102 38.5t-39 63.5zM403 555h457l-229 766z" />
<glyph unicode="&#xc1;" horiz-adv-x="1273" d="M41 0l481 1495h228l483 -1495h-213l-119 393h-543l-118 -393h-199zM403 555h457l-229 766zM424 1714l318 150q49 23 72.5 34t43.5 11q23 0 43.5 -13.5t32.5 -44.5q8 -23 8 -41q0 -43 -38.5 -63.5t-102.5 -38.5l-334 -100z" />
<glyph unicode="&#xc2;" horiz-adv-x="1273" d="M41 0l481 1495h228l483 -1495h-213l-119 393h-543l-118 -393h-199zM309 1698l221 178q35 29 58.5 38t52.5 9t52.5 -9t58.5 -38l221 -178l-66 -94l-266 163l-266 -163zM403 555h457l-229 766z" />
<glyph unicode="&#xc3;" horiz-adv-x="1273" d="M41 0l481 1495h228l483 -1495h-213l-119 393h-543l-118 -393h-199zM285 1716q41 66 96 108t123 42q45 0 81 -13.5t67.5 -30t62 -29.5t65.5 -13q41 0 67.5 19.5t57.5 58.5l94 -74q-41 -66 -96 -108t-123 -42q-45 0 -80.5 13.5t-67.5 30t-62.5 29.5t-65.5 13 q-41 0 -67.5 -19.5t-57.5 -58.5zM403 555h457l-229 766z" />
<glyph unicode="&#xc4;" horiz-adv-x="1273" d="M41 0l481 1495h228l483 -1495h-213l-119 393h-543l-118 -393h-199zM344 1745q0 55 28.5 86t84.5 31q57 0 85.5 -31t28.5 -84q1 -115 -114 -115q-113 0 -113 113zM403 555h457l-229 766zM713 1745q0 55 28.5 86t85.5 31q55 0 84 -31t29 -84q0 -115 -113 -115 q-115 0 -114 113z" />
<glyph unicode="&#xc5;" horiz-adv-x="1273" d="M41 0l473 1454q-96 51 -96 178q0 100 58.5 156.5t154.5 56.5t154.5 -56t58.5 -157q0 -121 -90 -172l479 -1460h-213l-119 393h-543l-118 -393h-199zM403 555h457l-229 766zM541 1632q0 -45 24.5 -69.5t65.5 -24.5t65.5 24.5t24.5 69.5t-24.5 69.5t-65.5 24.5t-65.5 -24.5 t-24.5 -69.5z" />
<glyph unicode="&#xc6;" horiz-adv-x="1894" d="M41 0l754 1495h966v-166h-614v-475h555v-168h-555v-520h637v-166h-830v430h-491l-215 -430h-207zM532 592h422v737h-55z" />
<glyph unicode="&#xc7;" horiz-adv-x="1165" d="M129 725q0 197 32 346.5t100.5 248.5t180 149.5t271.5 50.5q100 0 191 -17.5t167 -46.5v-141q-78 10 -167 22.5t-167 12.5q-111 0 -187.5 -28t-125.5 -96.5t-70.5 -183t-21.5 -286.5q0 -178 23.5 -296t73.5 -187.5t131 -98.5t196 -29q80 0 165 12.5t160 22.5v-141 q-59 -23 -129.5 -38t-150.5 -21v-35q0 -150 -48 -220.5t-175 -70.5q-29 0 -61 3t-64 11v113q18 -2 28.5 -2h20.5q53 0 84.5 11t47 33.5t19.5 56.5t4 81v16q-152 8 -253 60.5t-162.5 147t-87 229.5t-25.5 311z" />
<glyph unicode="&#xc8;" horiz-adv-x="1132" d="M168 0v1495h831v-166h-634v-475h573v-168h-573v-520h657v-166h-854zM318 1810q0 18 8 41q12 31 32.5 44.5t43.5 13.5q20 0 43.5 -11.5t72.5 -33.5l318 -150l-43 -106l-334 100q-63 18 -102 38.5t-39 63.5z" />
<glyph unicode="&#xc9;" horiz-adv-x="1132" d="M168 0v1495h831v-166h-634v-475h573v-168h-573v-520h657v-166h-854zM352 1714l318 150q49 23 72.5 34t43.5 11q23 0 43.5 -13.5t32.5 -44.5q8 -23 8 -41q0 -43 -38.5 -63.5t-102.5 -38.5l-334 -100z" />
<glyph unicode="&#xca;" horiz-adv-x="1132" d="M168 0v1495h831v-166h-634v-475h573v-168h-573v-520h657v-166h-854zM258 1698l221 178q35 29 58.5 38t52.5 9t52.5 -9t58.5 -38l221 -178l-66 -94l-266 163l-266 -163z" />
<glyph unicode="&#xcb;" horiz-adv-x="1132" d="M168 0v1495h831v-166h-634v-475h573v-168h-573v-520h657v-166h-854zM297 1745q0 55 28.5 86t84.5 31q57 0 85.5 -31t28.5 -84q1 -115 -114 -115q-113 0 -113 113zM666 1745q0 55 28.5 86t85.5 31q55 0 84 -31t29 -84q0 -115 -113 -115q-115 0 -114 113z" />
<glyph unicode="&#xcc;" horiz-adv-x="536" d="M-34 1810q0 18 8 41q12 31 32.5 44.5t43.5 13.5q20 0 43.5 -11.5t72.5 -33.5l318 -150l-43 -106l-334 100q-63 18 -102 38.5t-39 63.5zM168 0v1495h201v-1495h-201z" />
<glyph unicode="&#xcd;" horiz-adv-x="536" d="M55 1714l318 150q49 23 72.5 34t43.5 11q23 0 43.5 -13.5t32.5 -44.5q8 -23 8 -41q0 -43 -38.5 -63.5t-102.5 -38.5l-334 -100zM168 0v1495h201v-1495h-201z" />
<glyph unicode="&#xce;" horiz-adv-x="536" d="M-64 1698l221 178q35 29 58.5 38t52.5 9t52.5 -9t58.5 -38l221 -178l-66 -94l-266 163l-266 -163zM168 0v1495h201v-1495h-201z" />
<glyph unicode="&#xcf;" horiz-adv-x="536" d="M-29 1745q0 55 28.5 86t84.5 31q57 0 85.5 -31t28.5 -84q1 -115 -114 -115q-113 0 -113 113zM168 0v1495h201v-1495h-201zM340 1745q0 55 28.5 86t85.5 31q55 0 84 -31t29 -84q0 -115 -113 -115q-115 0 -114 113z" />
<glyph unicode="&#xd0;" horiz-adv-x="1406" d="M37 678v153h164v664h465q162 0 277.5 -42t190 -133t109.5 -231.5t35 -336.5q0 -391 -150.5 -571.5t-468.5 -180.5h-458v678h-164zM395 170h258q102 0 180 23.5t131.5 87t81 176t27.5 288.5q0 178 -27.5 291t-81 177.5t-132 88t-179.5 23.5h-258v-494h275v-153h-275v-508z " />
<glyph unicode="&#xd1;" horiz-adv-x="1388" d="M168 0v1495h176l690 -1155v1155h187v-1495h-179l-688 1151v-1151h-186zM344 1716q41 66 96 108t123 42q45 0 81 -13.5t67.5 -30t62 -29.5t65.5 -13q41 0 67.5 19.5t57.5 58.5l94 -74q-41 -66 -96 -108t-123 -42q-45 0 -80.5 13.5t-67.5 30t-62.5 29.5t-65.5 13 q-41 0 -67.5 -19.5t-57.5 -58.5z" />
<glyph unicode="&#xd2;" horiz-adv-x="1427" d="M129 743q0 193 33 338.5t103.5 242.5t182 146.5t269.5 49.5q162 0 272.5 -48.5t179 -144.5t99 -240.5t30.5 -334.5q0 -193 -32.5 -338.5t-103 -242.5t-182.5 -146.5t-269 -49.5q-162 1 -273 48q-111 49 -179.5 145t-99 240.5t-30.5 334.5zM332 750q0 -174 23.5 -291 t70.5 -189q47 -70 118.5 -99.5t168.5 -29.5q98 0 169.5 30t120 99.5t71 186t22.5 288.5q0 174 -23.5 291t-71 187.5t-119 100.5t-167.5 30q-98 0 -170 -30t-120 -99.5t-70.5 -186t-22.5 -288.5zM418 1810q0 18 8 41q12 31 32.5 44.5t43.5 13.5q20 0 43.5 -11.5t72.5 -33.5 l318 -150l-43 -106l-334 100q-63 18 -102 38.5t-39 63.5z" />
<glyph unicode="&#xd3;" horiz-adv-x="1427" d="M129 743q0 193 33 338.5t103.5 242.5t182 146.5t269.5 49.5q162 0 272.5 -48.5t179 -144.5t99 -240.5t30.5 -334.5q0 -193 -32.5 -338.5t-103 -242.5t-182.5 -146.5t-269 -49.5q-162 1 -273 48q-111 49 -179.5 145t-99 240.5t-30.5 334.5zM332 750q0 -174 23.5 -291 t70.5 -189q47 -70 118.5 -99.5t168.5 -29.5q98 0 169.5 30t120 99.5t71 186t22.5 288.5q0 174 -23.5 291t-71 187.5t-119 100.5t-167.5 30q-98 0 -170 -30t-120 -99.5t-70.5 -186t-22.5 -288.5zM491 1714l318 150q49 23 72.5 34t43.5 11q23 0 43.5 -13.5t32.5 -44.5 q8 -23 8 -41q0 -43 -38.5 -63.5t-102.5 -38.5l-334 -100z" />
<glyph unicode="&#xd4;" horiz-adv-x="1427" d="M129 743q0 193 33 338.5t103.5 242.5t182 146.5t269.5 49.5q162 0 272.5 -48.5t179 -144.5t99 -240.5t30.5 -334.5q0 -193 -32.5 -338.5t-103 -242.5t-182.5 -146.5t-269 -49.5q-162 1 -273 48q-111 49 -179.5 145t-99 240.5t-30.5 334.5zM332 750q0 -174 23.5 -291 t70.5 -189q47 -70 118.5 -99.5t168.5 -29.5q98 0 169.5 30t120 99.5t71 186t22.5 288.5q0 174 -23.5 291t-71 187.5t-119 100.5t-167.5 30q-98 0 -170 -30t-120 -99.5t-70.5 -186t-22.5 -288.5zM381 1698l221 178q35 29 58.5 38t52.5 9t52.5 -9t58.5 -38l221 -178l-66 -94 l-266 163l-266 -163z" />
<glyph unicode="&#xd5;" horiz-adv-x="1427" d="M129 743q0 193 33 338.5t103.5 242.5t182 146.5t269.5 49.5q162 0 272.5 -48.5t179 -144.5t99 -240.5t30.5 -334.5q0 -193 -32.5 -338.5t-103 -242.5t-182.5 -146.5t-269 -49.5q-162 1 -273 48q-111 49 -179.5 145t-99 240.5t-30.5 334.5zM332 750q0 -174 23.5 -291 t70.5 -189q47 -70 118.5 -99.5t168.5 -29.5q98 0 169.5 30t120 99.5t71 186t22.5 288.5q0 174 -23.5 291t-71 187.5t-119 100.5t-167.5 30q-98 0 -170 -30t-120 -99.5t-70.5 -186t-22.5 -288.5zM357 1716q41 66 96 108t123 42q45 0 81 -13.5t67.5 -30t62 -29.5t65.5 -13 q41 0 67.5 19.5t57.5 58.5l94 -74q-41 -66 -96 -108t-123 -42q-45 0 -80.5 13.5t-67.5 30t-62.5 29.5t-65.5 13q-41 0 -67.5 -19.5t-57.5 -58.5z" />
<glyph unicode="&#xd6;" horiz-adv-x="1427" d="M129 743q0 193 33 338.5t103.5 242.5t182 146.5t269.5 49.5q162 0 272.5 -48.5t179 -144.5t99 -240.5t30.5 -334.5q0 -193 -32.5 -338.5t-103 -242.5t-182.5 -146.5t-269 -49.5q-162 1 -273 48q-111 49 -179.5 145t-99 240.5t-30.5 334.5zM332 750q0 -174 23.5 -291 t70.5 -189q47 -70 118.5 -99.5t168.5 -29.5q98 0 169.5 30t120 99.5t71 186t22.5 288.5q0 174 -23.5 291t-71 187.5t-119 100.5t-167.5 30q-98 0 -170 -30t-120 -99.5t-70.5 -186t-22.5 -288.5zM416 1745q0 55 28.5 86t84.5 31q57 0 85.5 -31t28.5 -84q1 -115 -114 -115 q-113 0 -113 113zM785 1745q0 55 28.5 86t85.5 31q55 0 84 -31t29 -84q0 -115 -113 -115q-115 0 -114 113z" />
<glyph unicode="&#xd7;" d="M193 483l251 252l-251 252l102 103l252 -252l252 252l102 -103l-252 -252l252 -252l-102 -102l-252 252l-252 -252z" />
<glyph unicode="&#xd8;" horiz-adv-x="1427" d="M129 743q0 193 33 338.5t103.5 242.5t182 146.5t269.5 49.5q197 0 319 -74l94 162l123 -68l-108 -184q82 -98 117.5 -248t35.5 -356q0 -193 -32.5 -338.5t-103 -242.5t-182.5 -146.5t-269 -49.5q-201 0 -326 76l-92 -160l-123 68l106 184q-78 96 -112.5 246t-34.5 354z M326 750q0 -141 14 -244t47 -174l557 956q-45 35 -101.5 50.5t-127.5 15.5q-100 0 -173 -30t-121 -99.5t-71.5 -186t-23.5 -288.5zM477 209q47 -37 105.5 -52.5t130.5 -15.5q100 0 172.5 30t121 99.5t72 186t23.5 288.5q0 145 -16.5 249t-49.5 175z" />
<glyph unicode="&#xd9;" horiz-adv-x="1382" d="M168 684v811h201v-803q0 -178 18.5 -286.5t58 -167t99 -78t143.5 -19.5t145.5 19.5t101.5 78t59.5 165t19.5 282.5v809h200v-801q0 -188 -26.5 -324.5t-89 -224.5t-165 -129t-253.5 -41q-156 0 -255 41t-156.5 127t-79 220.5t-21.5 320.5zM361 1810q0 18 8 41 q12 31 32.5 44.5t43.5 13.5q20 0 43.5 -11.5t72.5 -33.5l318 -150l-43 -106l-334 100q-63 18 -102 38.5t-39 63.5z" />
<glyph unicode="&#xda;" horiz-adv-x="1382" d="M168 684v811h201v-803q0 -178 18.5 -286.5t58 -167t99 -78t143.5 -19.5t145.5 19.5t101.5 78t59.5 165t19.5 282.5v809h200v-801q0 -188 -26.5 -324.5t-89 -224.5t-165 -129t-253.5 -41q-156 0 -255 41t-156.5 127t-79 220.5t-21.5 320.5zM504 1714l318 150 q49 23 72.5 34t43.5 11q23 0 43.5 -13.5t32.5 -44.5q8 -23 8 -41q0 -43 -38.5 -63.5t-102.5 -38.5l-334 -100z" />
<glyph unicode="&#xdb;" horiz-adv-x="1382" d="M168 684v811h201v-803q0 -178 18.5 -286.5t58 -167t99 -78t143.5 -19.5t145.5 19.5t101.5 78t59.5 165t19.5 282.5v809h200v-801q0 -188 -26.5 -324.5t-89 -224.5t-165 -129t-253.5 -41q-156 0 -255 41t-156.5 127t-79 220.5t-21.5 320.5zM358 1698l221 178 q35 29 58.5 38t52.5 9t52.5 -9t58.5 -38l221 -178l-66 -94l-266 163l-266 -163z" />
<glyph unicode="&#xdc;" horiz-adv-x="1382" d="M168 684v811h201v-803q0 -178 18.5 -286.5t58 -167t99 -78t143.5 -19.5t145.5 19.5t101.5 78t59.5 165t19.5 282.5v809h200v-801q0 -188 -26.5 -324.5t-89 -224.5t-165 -129t-253.5 -41q-156 0 -255 41t-156.5 127t-79 220.5t-21.5 320.5zM395 1745q0 55 28.5 86t84.5 31 q57 0 85.5 -31t28.5 -84q1 -115 -114 -115q-113 0 -113 113zM764 1745q0 55 28.5 86t85.5 31q55 0 84 -31t29 -84q0 -115 -113 -115q-115 0 -114 113z" />
<glyph unicode="&#xdd;" horiz-adv-x="1181" d="M41 1495h215l338 -686l338 686h209l-447 -852v-643h-200v633zM379 1714l318 150q49 23 72.5 34t43.5 11q23 0 43.5 -13.5t32.5 -44.5q8 -23 8 -41q0 -43 -38.5 -63.5t-102.5 -38.5l-334 -100z" />
<glyph unicode="&#xde;" horiz-adv-x="1193" d="M166 0v1495h203v-270h241q258 0 375 -113t117 -336q0 -215 -116 -333.5t-376 -118.5h-241v-324h-203zM369 483h225q76 0 134 13.5t96 46t57.5 89t19.5 142.5q0 84 -18.5 140.5t-56.5 89t-96 46t-136 13.5h-225v-580z" />
<glyph unicode="&#xdf;" horiz-adv-x="1167" d="M150 0v1100q0 188 100 297.5t305 109.5q188 0 278.5 -86t90.5 -233q0 -106 -43 -173t-109 -114l-29 -20q-55 -41 -76.5 -63.5t-21.5 -57.5q0 -20 6 -34.5t24.5 -28t52.5 -26t87 -30.5l37 -12q55 -18 100 -41t79 -58.5t52.5 -87t18.5 -127.5q0 -170 -92 -254t-262 -84 q-86 0 -160 16.5t-119 29.5v116q53 -8 109.5 -13t109.5 -5q121 0 176.5 40t55.5 150q0 45 -10.5 75t-33 49.5t-59.5 34.5t-92 32l-45 14q-55 18 -94 35.5t-64.5 42t-37 57.5t-11.5 80q0 45 10.5 77t29.5 58.5t47 49t63 47.5l30 22q51 35 71.5 75t20.5 103q0 92 -44 141.5 t-150 49.5q-104 0 -158.5 -55.5t-54.5 -192.5v-1106h-188z" />
<glyph unicode="&#xe0;" horiz-adv-x="1040" d="M84 291q0 86 26.5 146.5t78 98t123 55t161.5 17.5h211v51q0 72 -17.5 117t-50 69.5t-80 34t-106.5 9.5q-29 0 -64.5 -2t-72.5 -5t-71 -7.5t-56 -6.5v117q61 23 141 40t178 17q195 0 287 -87t92 -287v-439q0 -66 21.5 -94.5t81.5 -28.5h26v-104q-16 -4 -40.5 -7t-45.5 -3 q-84 0 -134 28.5t-73 96.5q-47 -66 -117.5 -101.5t-168.5 -35.5q-330 0 -330 311zM217 1395q0 20 8 39q14 31 31.5 43t40.5 12q29 0 74 -21l348 -168l-45 -110l-369 119q-37 12 -62.5 31.5t-25.5 54.5zM258 301q0 -98 51 -136t131 -38q125 0 184.5 66.5t59.5 171.5v114h-211 q-109 0 -162 -41t-53 -137z" />
<glyph unicode="&#xe1;" horiz-adv-x="1040" d="M84 291q0 86 26.5 146.5t78 98t123 55t161.5 17.5h211v51q0 72 -17.5 117t-50 69.5t-80 34t-106.5 9.5q-29 0 -64.5 -2t-72.5 -5t-71 -7.5t-56 -6.5v117q61 23 141 40t178 17q195 0 287 -87t92 -287v-439q0 -66 21.5 -94.5t81.5 -28.5h26v-104q-16 -4 -40.5 -7t-45.5 -3 q-84 0 -134 28.5t-73 96.5q-47 -66 -117.5 -101.5t-168.5 -35.5q-330 0 -330 311zM239 1300l348 168q45 20 74 21q23 0 40.5 -12.5t31.5 -42.5q8 -18 8 -39q0 -35 -25.5 -54.5t-62.5 -31.5l-369 -119zM258 301q0 -98 51 -136t131 -38q125 0 184.5 66.5t59.5 171.5v114h-211 q-109 0 -162 -41t-53 -137z" />
<glyph unicode="&#xe2;" horiz-adv-x="1040" d="M84 291q0 86 26.5 146.5t78 98t123 55t161.5 17.5h211v51q0 72 -17.5 117t-50 69.5t-80 34t-106.5 9.5q-29 0 -64.5 -2t-72.5 -5t-71 -7.5t-56 -6.5v117q61 23 141 40t178 17q195 0 287 -87t92 -287v-439q0 -66 21.5 -94.5t81.5 -28.5h26v-104q-16 -4 -40.5 -7t-45.5 -3 q-84 0 -134 28.5t-73 96.5q-47 -66 -117.5 -101.5t-168.5 -35.5q-330 0 -330 311zM165 1282l218 174q35 29 56 38t50 9t50.5 -9t55.5 -38l218 -174l-68 -92l-256 162l-256 -162zM258 301q0 -98 51 -136t131 -38q125 0 184.5 66.5t59.5 171.5v114h-211q-109 0 -162 -41 t-53 -137z" />
<glyph unicode="&#xe3;" horiz-adv-x="1040" d="M84 291q0 86 26.5 146.5t78 98t123 55t161.5 17.5h211v51q0 72 -17.5 117t-50 69.5t-80 34t-106.5 9.5q-29 0 -64.5 -2t-72.5 -5t-71 -7.5t-56 -6.5v117q61 23 141 40t178 17q195 0 287 -87t92 -287v-439q0 -66 21.5 -94.5t81.5 -28.5h26v-104q-16 -4 -40.5 -7t-45.5 -3 q-84 0 -134 28.5t-73 96.5q-47 -66 -117.5 -101.5t-168.5 -35.5q-330 0 -330 311zM137 1315q41 66 94 109.5t119 43.5q43 0 76.5 -13t64.5 -29.5t60.5 -30t64.5 -13.5q39 0 65.5 19.5t55.5 58.5l92 -78q-41 -66 -94 -109.5t-119 -43.5q-43 0 -78 13t-65.5 29.5t-60 30 t-62.5 13.5q-39 0 -65.5 -19.5t-55.5 -58.5zM258 301q0 -98 51 -136t131 -38q125 0 184.5 66.5t59.5 171.5v114h-211q-109 0 -162 -41t-53 -137z" />
<glyph unicode="&#xe4;" horiz-adv-x="1040" d="M84 291q0 86 26.5 146.5t78 98t123 55t161.5 17.5h211v51q0 72 -17.5 117t-50 69.5t-80 34t-106.5 9.5q-29 0 -64.5 -2t-72.5 -5t-71 -7.5t-56 -6.5v117q61 23 141 40t178 17q195 0 287 -87t92 -287v-439q0 -66 21.5 -94.5t81.5 -28.5h26v-104q-16 -4 -40.5 -7t-45.5 -3 q-84 0 -134 28.5t-73 96.5q-47 -66 -117.5 -101.5t-168.5 -35.5q-330 0 -330 311zM209 1346q0 113 109 112q53 0 80.5 -28.5t27.5 -81.5q1 -113 -108 -113q-55 0 -82 28.5t-27 82.5zM258 301q0 -98 51 -136t131 -38q125 0 184.5 66.5t59.5 171.5v114h-211q-109 0 -162 -41 t-53 -137zM568 1346q0 113 108 112q55 0 82 -28.5t27 -81.5q0 -113 -109 -113q-53 0 -80.5 28.5t-27.5 82.5z" />
<glyph unicode="&#xe5;" horiz-adv-x="1040" d="M84 291q0 86 26.5 146.5t78 98t123 55t161.5 17.5h211v51q0 72 -17.5 117t-50 69.5t-80 34t-106.5 9.5q-29 0 -64.5 -2t-72.5 -5t-71 -7.5t-56 -6.5v117q61 23 141 40t178 17q195 0 287 -87t92 -287v-439q0 -66 21.5 -94.5t81.5 -28.5h26v-104q-16 -4 -40.5 -7t-45.5 -3 q-84 0 -134 28.5t-73 96.5q-47 -66 -117.5 -101.5t-168.5 -35.5q-330 0 -330 311zM258 301q0 -98 51 -136t131 -38q125 0 184.5 66.5t59.5 171.5v114h-211q-109 0 -162 -41t-53 -137zM299 1374q0 92 51 142.5t137 50.5t137 -50.5t51 -142.5t-51 -142t-137 -50t-137 49 q-51 51 -51 143zM407 1374q1 -40 21 -65q23 -23 59 -23q37 0 58.5 23.5t21.5 64.5t-21.5 64.5t-58.5 23.5t-58.5 -23.5t-21.5 -64.5z" />
<glyph unicode="&#xe6;" horiz-adv-x="1617" d="M84 293q0 172 105.5 243.5t283.5 71.5h211v51q0 70 -17.5 115t-49 70.5t-77.5 35t-104 9.5q-31 0 -68.5 -2t-75.5 -5t-71 -7.5t-55 -6.5v117q59 23 137 40t174 17q121 0 200 -35.5t120 -113.5q102 152 323 151q106 0 180 -34.5t120 -101t66.5 -163t20.5 -219.5v-71h-641 q6 -106 30 -171t67 -98.5t103 -45t138 -11.5q72 0 133.5 6t118.5 15v-123q-61 -25 -141 -38.5t-158 -13.5q-152 0 -248 49.5t-147 145.5q-41 -86 -122 -138t-218 -52q-162 0 -250 78.5t-88 234.5zM258 301q0 -98 51 -136t131 -38q125 0 184.5 66.5t59.5 171.5v114h-211 q-109 0 -162 -41t-53 -137zM864 588h463q0 162 -48 234.5t-169 72.5q-131 0 -184.5 -79t-61.5 -228z" />
<glyph unicode="&#xe7;" horiz-adv-x="917" d="M111 504q0 262 102 400t336 138q82 0 150.5 -13t127.5 -30v-125q-59 4 -117.5 8.5t-107.5 4.5q-80 0 -136 -14.5t-91 -56.5t-51.5 -117.5t-16.5 -198.5q0 -111 14.5 -181.5t52.5 -112.5t103.5 -57.5t165.5 -15.5q35 0 85 2t110 6v-125q-92 -27 -197 -34v-25 q0 -150 -46 -220.5t-171 -70.5q-27 0 -58.5 3t-62.5 12v108q16 -2 26.5 -2h20.5q51 0 80 11.5t44 34t19.5 56t4.5 80.5v13q-211 16 -299 147t-88 375z" />
<glyph unicode="&#xe8;" horiz-adv-x="1050" d="M111 502q0 283 111.5 412.5t322.5 129.5q109 0 184.5 -33.5t122.5 -100t67.5 -163t20.5 -221.5v-71h-641q6 -106 29.5 -171t66.5 -98.5t103.5 -45t138.5 -11.5q72 0 133 6t119 15v-123q-61 -25 -140 -38.5t-163 -13.5q-256 0 -365.5 132.5t-109.5 394.5zM250 1395 q0 20 8 39q14 31 31.5 43t40.5 12q29 0 74 -21l348 -168l-45 -110l-369 119q-37 12 -62.5 31.5t-25.5 54.5zM297 588h463q0 162 -48 234.5t-169 72.5q-131 0 -184.5 -79t-61.5 -228z" />
<glyph unicode="&#xe9;" horiz-adv-x="1050" d="M111 502q0 283 111.5 412.5t322.5 129.5q109 0 184.5 -33.5t122.5 -100t67.5 -163t20.5 -221.5v-71h-641q6 -106 29.5 -171t66.5 -98.5t103.5 -45t138.5 -11.5q72 0 133 6t119 15v-123q-61 -25 -140 -38.5t-163 -13.5q-256 0 -365.5 132.5t-109.5 394.5zM295 1300 l348 168q45 20 74 21q23 0 40.5 -12.5t31.5 -42.5q8 -18 8 -39q0 -35 -25.5 -54.5t-62.5 -31.5l-369 -119zM297 588h463q0 162 -48 234.5t-169 72.5q-131 0 -184.5 -79t-61.5 -228z" />
<glyph unicode="&#xea;" horiz-adv-x="1050" d="M111 502q0 283 111.5 412.5t322.5 129.5q109 0 184.5 -33.5t122.5 -100t67.5 -163t20.5 -221.5v-71h-641q6 -106 29.5 -171t66.5 -98.5t103.5 -45t138.5 -11.5q72 0 133 6t119 15v-123q-61 -25 -140 -38.5t-163 -13.5q-256 0 -365.5 132.5t-109.5 394.5zM213 1282 l218 174q35 29 56 38t50 9t50.5 -9t55.5 -38l218 -174l-68 -92l-256 162l-256 -162zM297 588h463q0 162 -48 234.5t-169 72.5q-131 0 -184.5 -79t-61.5 -228z" />
<glyph unicode="&#xeb;" horiz-adv-x="1050" d="M111 502q0 283 111.5 412.5t322.5 129.5q109 0 184.5 -33.5t122.5 -100t67.5 -163t20.5 -221.5v-71h-641q6 -106 29.5 -171t66.5 -98.5t103.5 -45t138.5 -11.5q72 0 133 6t119 15v-123q-61 -25 -140 -38.5t-163 -13.5q-256 0 -365.5 132.5t-109.5 394.5zM250 1346 q0 113 109 112q53 0 80.5 -28.5t27.5 -81.5q1 -113 -108 -113q-55 0 -82 28.5t-27 82.5zM297 588h463q0 162 -48 234.5t-169 72.5q-131 0 -184.5 -79t-61.5 -228zM609 1346q0 113 108 112q55 0 82 -28.5t27 -81.5q0 -113 -109 -113q-53 0 -80.5 28.5t-27.5 82.5z" />
<glyph unicode="&#xec;" horiz-adv-x="491" d="M-63 1395q0 20 8 39q14 31 31.5 43t40.5 12q29 0 74 -21l348 -168l-45 -110l-369 119q-37 12 -62.5 31.5t-25.5 54.5zM152 0v1020h188v-1020h-188z" />
<glyph unicode="&#xed;" horiz-adv-x="491" d="M53 1300l348 168q45 20 74 21q23 0 40.5 -12.5t31.5 -42.5q8 -18 8 -39q0 -35 -25.5 -54.5t-62.5 -31.5l-369 -119zM152 0v1020h188v-1020h-188z" />
<glyph unicode="&#xee;" horiz-adv-x="491" d="M-76 1282l218 174q35 29 56 38t50 9t50.5 -9t55.5 -38l218 -174l-68 -92l-256 162l-256 -162zM152 0v1020h188v-1020h-188z" />
<glyph unicode="&#xef;" horiz-adv-x="491" d="M-39 1346q0 113 109 112q53 0 80.5 -28.5t27.5 -81.5q1 -113 -108 -113q-55 0 -82 28.5t-27 82.5zM152 0v1020h188v-1020h-188zM320 1346q0 113 108 112q55 0 82 -28.5t27 -81.5q0 -113 -109 -113q-53 0 -80.5 28.5t-27.5 82.5z" />
<glyph unicode="&#xf0;" horiz-adv-x="1122" d="M111 477q0 242 107.5 367t318.5 125q102 0 161.5 -29t106.5 -78q-4 88 -17.5 168t-39.5 146l-195 -89l-47 101l186 84q-41 49 -98 76.5t-143 27.5q-20 0 -48 -1t-57 -5v119q41 8 80 12t78 4q119 0 201.5 -43t142.5 -121l172 78l47 -100l-164 -74q57 -119 80 -280.5 t23 -329.5q0 -156 -18.5 -277.5t-68 -206.5t-136.5 -130.5t-224 -45.5q-121 0 -206 36t-138 102.5t-78.5 159t-25.5 204.5zM303 477q0 -188 66 -266q68 -78 194 -78q74 0 123 24.5t78 69.5t40 109.5t11 146.5q0 80 -11 141.5t-39 104.5t-76 65.5t-122 22.5 q-141 0 -202.5 -83t-61.5 -257z" />
<glyph unicode="&#xf1;" horiz-adv-x="1136" d="M152 0v1020h151l16 -115q51 59 126 99t200 40q100 0 168 -29.5t109 -81.5t57 -124t16 -158v-651h-188v631q0 141 -50 197.5t-161 56.5q-53 0 -100 -13.5t-82 -43t-54.5 -79t-19.5 -118.5v-631h-188zM240 1315q41 66 94 109.5t119 43.5q43 0 76.5 -13t64.5 -29.5t60.5 -30 t64.5 -13.5q39 0 65.5 19.5t55.5 58.5l92 -78q-41 -66 -94 -109.5t-119 -43.5q-43 0 -78 13t-65.5 29.5t-60 30t-62.5 13.5q-39 0 -65.5 -19.5t-55.5 -58.5z" />
<glyph unicode="&#xf2;" horiz-adv-x="1126" d="M111 508q0 268 111.5 402t342.5 134q229 0 340 -133t111 -399q0 -268 -112 -402.5t-343 -134.5q-229 0 -339.5 133.5t-110.5 399.5zM281 1395q0 20 8 39q14 31 31.5 43t40.5 12q29 0 74 -21l348 -168l-45 -110l-369 119q-37 12 -62.5 31.5t-25.5 54.5zM303 512 q0 -109 16.5 -180.5t49.5 -116.5q35 -45 83 -63.5t113 -18.5q63 0 111.5 18.5t80 62.5t48 115.5t16.5 180.5q0 106 -16.5 179t-50 117t-82.5 62.5t-113 18.5q-63 0 -111.5 -18.5t-80 -61.5t-48 -116t-16.5 -179z" />
<glyph unicode="&#xf3;" horiz-adv-x="1126" d="M111 508q0 268 111.5 402t342.5 134q229 0 340 -133t111 -399q0 -268 -112 -402.5t-343 -134.5q-229 0 -339.5 133.5t-110.5 399.5zM303 512q0 -109 16.5 -180.5t49.5 -116.5q35 -45 83 -63.5t113 -18.5q63 0 111.5 18.5t80 62.5t48 115.5t16.5 180.5q0 106 -16.5 179 t-50 117t-82.5 62.5t-113 18.5q-63 0 -111.5 -18.5t-80 -61.5t-48 -116t-16.5 -179zM340 1300l348 168q45 20 74 21q23 0 40.5 -12.5t31.5 -42.5q8 -18 8 -39q0 -35 -25.5 -54.5t-62.5 -31.5l-369 -119z" />
<glyph unicode="&#xf4;" horiz-adv-x="1126" d="M111 508q0 268 111.5 402t342.5 134q229 0 340 -133t111 -399q0 -268 -112 -402.5t-343 -134.5q-229 0 -339.5 133.5t-110.5 399.5zM239 1282l218 174q35 29 56 38t50 9t50.5 -9t55.5 -38l218 -174l-68 -92l-256 162l-256 -162zM303 512q0 -109 16.5 -180.5t49.5 -116.5 q35 -45 83 -63.5t113 -18.5q63 0 111.5 18.5t80 62.5t48 115.5t16.5 180.5q0 106 -16.5 179t-50 117t-82.5 62.5t-113 18.5q-63 0 -111.5 -18.5t-80 -61.5t-48 -116t-16.5 -179z" />
<glyph unicode="&#xf5;" horiz-adv-x="1126" d="M111 508q0 268 111.5 402t342.5 134q229 0 340 -133t111 -399q0 -268 -112 -402.5t-343 -134.5q-229 0 -339.5 133.5t-110.5 399.5zM221 1315q41 66 94 109.5t119 43.5q43 0 76.5 -13t64.5 -29.5t60.5 -30t64.5 -13.5q39 0 65.5 19.5t55.5 58.5l92 -78 q-41 -66 -94 -109.5t-119 -43.5q-43 0 -78 13t-65.5 29.5t-60 30t-62.5 13.5q-39 0 -65.5 -19.5t-55.5 -58.5zM303 512q0 -109 16.5 -180.5t49.5 -116.5q35 -45 83 -63.5t113 -18.5q63 0 111.5 18.5t80 62.5t48 115.5t16.5 180.5q0 106 -16.5 179t-50 117t-82.5 62.5 t-113 18.5q-63 0 -111.5 -18.5t-80 -61.5t-48 -116t-16.5 -179z" />
<glyph unicode="&#xf6;" horiz-adv-x="1126" d="M111 508q0 268 111.5 402t342.5 134q229 0 340 -133t111 -399q0 -268 -112 -402.5t-343 -134.5q-229 0 -339.5 133.5t-110.5 399.5zM276 1346q0 113 109 112q53 0 80.5 -28.5t27.5 -81.5q1 -113 -108 -113q-55 0 -82 28.5t-27 82.5zM303 512q0 -109 16.5 -180.5 t49.5 -116.5q35 -45 83 -63.5t113 -18.5q63 0 111.5 18.5t80 62.5t48 115.5t16.5 180.5q0 106 -16.5 179t-50 117t-82.5 62.5t-113 18.5q-63 0 -111.5 -18.5t-80 -61.5t-48 -116t-16.5 -179zM635 1346q0 113 108 112q55 0 82 -28.5t27 -81.5q0 -113 -109 -113 q-53 0 -80.5 28.5t-27.5 82.5z" />
<glyph unicode="&#xf7;" d="M152 666v149h790v-149h-790zM446 399q0 106 101 107q100 0 100 -103q0 -106 -100 -106t-101 102zM446 1077q0 106 101 107q100 0 100 -103q0 -106 -100 -106t-101 102z" />
<glyph unicode="&#xf8;" horiz-adv-x="1126" d="M111 508q0 268 111.5 402t342.5 134q143 0 238 -51l84 129l100 -65l-90 -139q119 -131 119 -406q0 -268 -111.5 -402.5t-343.5 -134.5q-72 0 -131 13.5t-108 38.5l-82 -127l-101 63l88 137q-117 135 -116 408zM293 512q0 -164 39 -248l379 586q-57 37 -152 37 q-66 0 -116 -18.5t-83.5 -61.5t-50 -116t-16.5 -179zM414 168q57 -35 151 -35q66 0 116 18.5t84 62.5t50 115.5t16 180.5q0 80 -10 140.5t-28 103.5z" />
<glyph unicode="&#xf9;" horiz-adv-x="1130" d="M141 369v651h189v-631q0 -141 50 -197.5t159 -56.5q53 0 99 13.5t80 43t53.5 77.5t19.5 120v631h188v-1020h-152l-16 115q-51 -59 -125 -99.5t-199 -40.5q-100 0 -166.5 29t-106.5 81t-56.5 125t-16.5 159zM272 1395q0 20 8 39q14 31 31.5 43t40.5 12q29 0 74 -21 l348 -168l-45 -110l-369 119q-37 12 -62.5 31.5t-25.5 54.5z" />
<glyph unicode="&#xfa;" horiz-adv-x="1130" d="M141 369v651h189v-631q0 -141 50 -197.5t159 -56.5q53 0 99 13.5t80 43t53.5 77.5t19.5 120v631h188v-1020h-152l-16 115q-51 -59 -125 -99.5t-199 -40.5q-100 0 -166.5 29t-106.5 81t-56.5 125t-16.5 159zM344 1300l348 168q45 20 74 21q23 0 40.5 -12.5t31.5 -42.5 q8 -18 8 -39q0 -35 -25.5 -54.5t-62.5 -31.5l-369 -119z" />
<glyph unicode="&#xfb;" horiz-adv-x="1130" d="M141 369v651h189v-631q0 -141 50 -197.5t159 -56.5q53 0 99 13.5t80 43t53.5 77.5t19.5 120v631h188v-1020h-152l-16 115q-51 -59 -125 -99.5t-199 -40.5q-100 0 -166.5 29t-106.5 81t-56.5 125t-16.5 159zM237 1282l218 174q35 29 56 38t50 9t50.5 -9t55.5 -38l218 -174 l-68 -92l-256 162l-256 -162z" />
<glyph unicode="&#xfc;" horiz-adv-x="1130" d="M141 369v651h189v-631q0 -141 50 -197.5t159 -56.5q53 0 99 13.5t80 43t53.5 77.5t19.5 120v631h188v-1020h-152l-16 115q-51 -59 -125 -99.5t-199 -40.5q-100 0 -166.5 29t-106.5 81t-56.5 125t-16.5 159zM274 1346q0 113 109 112q53 0 80.5 -28.5t27.5 -81.5 q1 -113 -108 -113q-55 0 -82 28.5t-27 82.5zM633 1346q0 113 108 112q55 0 82 -28.5t27 -81.5q0 -113 -109 -113q-53 0 -80.5 28.5t-27.5 82.5z" />
<glyph unicode="&#xfd;" horiz-adv-x="1013" d="M35 1020h207l288 -805l256 805h193l-410 -1176q-27 -76 -56.5 -134t-67 -98t-87 -60.5t-112.5 -20.5q-51 0 -95.5 9t-78.5 20v118q25 -2 52.5 -3t55.5 -1q49 0 82 7.5t58.5 30t46 64.5t45.5 113l34 105zM297 1300l348 168q45 20 74 21q23 0 40.5 -12.5t31.5 -42.5 q8 -18 8 -39q0 -35 -25.5 -54.5t-62.5 -31.5l-369 -119z" />
<glyph unicode="&#xfe;" horiz-adv-x="1159" d="M152 -457v1952h190v-577q41 49 109.5 87.5t189.5 38.5q209 0 308.5 -135t99.5 -391q0 -274 -110 -408.5t-314 -134.5q-109 0 -174.5 33t-110.5 84v-549h-188zM336 436q0 -86 20.5 -143t56.5 -93t84 -51.5t103 -15.5q125 0 189.5 84t64.5 291q0 111 -18.5 183.5t-52 115.5 t-82 61.5t-109.5 18.5q-55 0 -102.5 -14.5t-81 -48t-53 -90t-19.5 -140.5v-158z" />
<glyph unicode="&#xff;" horiz-adv-x="1013" d="M35 1020h207l288 -805l256 805h193l-410 -1176q-27 -76 -56.5 -134t-67 -98t-87 -60.5t-112.5 -20.5q-51 0 -95.5 9t-78.5 20v118q25 -2 52.5 -3t55.5 -1q49 0 82 7.5t58.5 30t46 64.5t45.5 113l34 105zM227 1346q0 113 109 112q53 0 80.5 -28.5t27.5 -81.5 q1 -113 -108 -113q-55 0 -82 28.5t-27 82.5zM586 1346q0 113 108 112q55 0 82 -28.5t27 -81.5q0 -113 -109 -113q-53 0 -80.5 28.5t-27.5 82.5z" />
<glyph unicode="&#x152;" horiz-adv-x="1980" d="M129 735q0 389 132 587t419 198q123 0 209 -38t147 -124v137h811v-166h-614v-475h553v-168h-553v-520h637v-166h-834v145q-29 -41 -63.5 -72.5t-77.5 -54t-98.5 -35t-126.5 -12.5q-287 0 -414 193.5t-127 570.5zM334 748q0 -174 22.5 -291t67.5 -186.5t113.5 -99.5 t160.5 -30q76 0 139.5 20.5t107.5 70t68.5 131t24.5 206.5v371q0 119 -25.5 199t-71.5 128t-108.5 67.5t-136.5 19.5q-92 0 -159.5 -30t-112.5 -100.5t-67.5 -186t-22.5 -289.5z" />
<glyph unicode="&#x153;" horiz-adv-x="1757" d="M111 508q0 537 446 536q252 0 350 -186q53 96 140.5 141t207.5 45q106 0 181 -34.5t122.5 -100t68 -163t20.5 -220.5v-71h-641q6 -106 29.5 -171t66.5 -98.5t103.5 -45t137.5 -11.5q72 0 133.5 6t118.5 15v-123q-61 -25 -141 -38.5t-160 -13.5q-147 0 -241.5 46.5 t-147.5 138.5q-98 -184 -352 -185q-442 0 -442 533zM303 516q0 -109 16.5 -182.5t49.5 -118.5q35 -45 83 -63.5t113 -18.5q63 0 111.5 18.5t80 61.5t48 114.5t16.5 178.5q0 109 -16.5 182.5t-50 117.5t-82.5 62.5t-113 18.5q-63 0 -111.5 -18.5t-80 -61.5t-48 -113.5 t-16.5 -177.5zM1004 588h462q0 162 -48 234.5t-169 72.5q-131 0 -184 -79t-61 -228z" />
<glyph unicode="&#x178;" horiz-adv-x="1181" d="M41 1495h215l338 -686l338 686h209l-447 -852v-643h-200v633zM293 1745q0 55 28.5 86t84.5 31q57 0 85.5 -31t28.5 -84q1 -115 -114 -115q-113 0 -113 113zM662 1745q0 55 28.5 86t85.5 31q55 0 84 -31t29 -84q0 -115 -113 -115q-115 0 -114 113z" />
<glyph unicode="&#x2c6;" horiz-adv-x="1024" d="M188 1282l218 174q35 29 56 38t50 9t50.5 -9t55.5 -38l218 -174l-68 -92l-256 162l-256 -162z" />
<glyph unicode="&#x2dc;" horiz-adv-x="1024" d="M166 1315q41 66 94 109.5t119 43.5q43 0 76.5 -13t64.5 -29.5t60.5 -30t64.5 -13.5q39 0 65.5 19.5t55.5 58.5l92 -78q-41 -66 -94 -109.5t-119 -43.5q-43 0 -78 13t-65.5 29.5t-60 30t-62.5 13.5q-39 0 -65.5 -19.5t-55.5 -58.5z" />
<glyph unicode="&#x2000;" horiz-adv-x="961" />
<glyph unicode="&#x2001;" horiz-adv-x="1923" />
<glyph unicode="&#x2002;" horiz-adv-x="961" />
<glyph unicode="&#x2003;" horiz-adv-x="1923" />
<glyph unicode="&#x2004;" horiz-adv-x="641" />
<glyph unicode="&#x2005;" horiz-adv-x="480" />
<glyph unicode="&#x2006;" horiz-adv-x="320" />
<glyph unicode="&#x2007;" horiz-adv-x="320" />
<glyph unicode="&#x2008;" horiz-adv-x="240" />
<glyph unicode="&#x2009;" horiz-adv-x="384" />
<glyph unicode="&#x200a;" horiz-adv-x="106" />
<glyph unicode="&#x2010;" horiz-adv-x="888" d="M119 502v155h651v-155h-651z" />
<glyph unicode="&#x2011;" horiz-adv-x="888" d="M119 502v155h651v-155h-651z" />
<glyph unicode="&#x2012;" horiz-adv-x="888" d="M119 502v155h651v-155h-651z" />
<glyph unicode="&#x2013;" horiz-adv-x="1024" d="M0 504v151h1024v-151h-1024z" />
<glyph unicode="&#x2018;" horiz-adv-x="454" d="M102 1133q0 16 4.5 33.5t10.5 35.5l116 316h125l-63 -351q-10 -53 -32.5 -82.5t-74.5 -29.5q-43 0 -64.5 21.5t-21.5 56.5z" />
<glyph unicode="&#x2019;" horiz-adv-x="454" d="M96 1059l64 350q10 53 32.5 83t73.5 30q43 0 64.5 -21.5t21.5 -56.5q0 -16 -4 -33.5t-10 -36.5l-117 -315h-125z" />
<glyph unicode="&#x201a;" horiz-adv-x="454" d="M76 -236l63 351q10 53 33 82.5t74 29.5q43 0 64.5 -21.5t21.5 -55.5q0 -16 -4 -34t-11 -36l-116 -316h-125z" />
<glyph unicode="&#x201c;" horiz-adv-x="788" d="M102 1133q0 16 4.5 33.5t10.5 35.5l116 316h125l-63 -351q-10 -53 -32.5 -82.5t-74.5 -29.5q-43 0 -64.5 21.5t-21.5 56.5zM436 1133q0 16 4.5 33.5t10.5 35.5l116 316h125l-63 -351q-10 -53 -32.5 -82.5t-74.5 -29.5q-43 0 -64.5 21.5t-21.5 56.5z" />
<glyph unicode="&#x201d;" horiz-adv-x="788" d="M96 1059l64 350q10 53 32.5 83t73.5 30q43 0 64.5 -21.5t21.5 -56.5q0 -16 -4 -33.5t-10 -36.5l-117 -315h-125zM430 1059l64 350q10 53 32.5 83t73.5 30q43 0 64.5 -21.5t21.5 -56.5q0 -16 -4 -33.5t-10 -36.5l-117 -315h-125z" />
<glyph unicode="&#x201e;" horiz-adv-x="788" d="M78 -233l64 350q10 53 32.5 83t73.5 30q43 0 64.5 -21.5t21.5 -56.5q0 -16 -4 -33.5t-10 -36.5l-117 -315h-125zM409 -233l64 350q10 53 32.5 83t73.5 30q43 0 64.5 -21.5t21.5 -56.5q0 -16 -4 -33.5t-10 -36.5l-117 -315h-125z" />
<glyph unicode="&#x2022;" horiz-adv-x="591" d="M152 791q0 72 35.5 111.5t107.5 39.5q74 0 109.5 -40t35.5 -111q0 -72 -35.5 -112t-109.5 -40q-72 0 -107.5 40t-35.5 112z" />
<glyph unicode="&#x2026;" horiz-adv-x="1544" d="M119 111q0 57 28.5 89.5t88.5 32.5q59 0 87.5 -32.5t28.5 -89.5q0 -55 -28.5 -88t-87.5 -33t-88 32.5t-29 88.5zM656 111q0 57 28.5 89.5t88.5 32.5q59 0 87.5 -32.5t28.5 -89.5q0 -55 -28.5 -88t-87.5 -33t-88 32.5t-29 88.5zM1192 111q0 57 28.5 89.5t88.5 32.5 q59 0 87.5 -32.5t28.5 -89.5q0 -55 -28.5 -88t-87.5 -33t-88 32.5t-29 88.5z" />
<glyph unicode="&#x202f;" horiz-adv-x="384" />
<glyph unicode="&#x2039;" horiz-adv-x="641" d="M102 512l244 369h182l-243 -369l243 -369h-182z" />
<glyph unicode="&#x203a;" horiz-adv-x="641" d="M113 143l243 369l-243 369h182l244 -369l-244 -369h-182z" />
<glyph unicode="&#x205f;" horiz-adv-x="480" />
<glyph unicode="&#x20ac;" d="M90 502v133h133q-2 29 -2 56.5v58.5v88h-131v133h141q12 104 42 199.5t88.5 167t148.5 114.5t225 43q82 0 151.5 -14.5t139.5 -36.5v-123q-63 6 -129 11t-125 5q-74 0 -132 -13t-103 -52t-74 -110.5t-43 -190.5h491l-32 -133h-469q-2 -27 -2 -55.5v-57.5v-90h436 l-33 -133h-393q12 -92 36.5 -162t68.5 -115t108.5 -67.5t154.5 -22.5q25 0 56.5 1t66.5 4t69 5t60 7v-123q-70 -23 -141.5 -36t-157.5 -13q-113 0 -199.5 28.5t-149 92t-101.5 162.5t-56 239h-143z" />
<glyph unicode="&#x2122;" horiz-adv-x="1425" d="M55 1376v119h541v-119h-199v-557h-143v557h-199zM690 819v676h119l192 -321l195 321h117v-676h-133v445l-142 -234h-75l-140 232v-443h-133z" />
<glyph unicode="&#x25fc;" horiz-adv-x="1024" d="M0 0v1024h1024v-1024h-1024z" />
</font>
</defs>
</svg>
